<svg id="svg" version="1.1" xmlns="http://www.w3.org/2000/svg" xmlns:xlink="http://www.w3.org/1999/xlink" width="400" height="400" viewBox="0, 0, 400,400"><g id="svgg"><path id="path0" d="M180.000 32.200 C 180.000 33.489,179.905 33.600,178.800 33.600 C 177.733 33.600,177.600 33.733,177.600 34.800 C 177.600 35.905,177.489 36.000,176.200 36.000 C 175.033 36.000,174.800 36.144,174.800 36.862 C 174.800 37.672,174.844 37.684,175.531 37.062 C 176.746 35.963,177.863 36.217,178.151 37.657 C 178.429 39.047,177.851 40.065,176.839 39.969 C 174.954 39.789,174.800 39.940,174.800 41.975 C 174.800 43.910,174.774 43.952,173.500 44.075 C 172.357 44.185,172.185 44.357,172.075 45.500 L 171.949 46.800 155.975 46.800 L 140.000 46.800 140.000 48.200 C 140.000 49.489,139.905 49.600,138.800 49.600 L 137.600 49.600 137.600 52.151 C 137.600 53.554,137.863 55.332,138.185 56.103 C 139.023 58.109,138.080 59.023,136.054 58.168 C 134.937 57.697,130.197 57.600,108.154 57.600 L 81.600 57.600 81.600 58.800 C 81.600 59.770,81.431 60.000,80.720 60.000 C 80.036 60.000,79.947 60.107,80.320 60.480 C 81.553 61.713,79.899 64.800,78.006 64.800 C 77.549 64.800,77.071 65.070,76.945 65.400 C 76.818 65.730,76.472 66.000,76.175 66.000 C 75.875 66.000,75.519 66.627,75.370 67.420 C 75.010 69.338,74.241 70.000,72.371 70.000 C 71.507 70.000,70.800 70.180,70.800 70.400 C 70.800 70.620,70.170 70.800,69.400 70.800 L 68.000 70.800 68.000 213.400 L 68.000 356.000 69.400 356.000 L 70.800 356.000 70.800 358.600 L 70.800 361.200 72.200 361.200 C 73.533 361.200,73.600 361.267,73.600 362.600 C 73.600 363.882,73.699 364.000,74.775 364.000 C 75.808 364.000,75.964 364.157,76.075 365.300 C 76.238 366.997,78.639 367.539,78.869 365.931 C 79.276 363.085,83.326 364.288,83.522 367.313 C 83.671 369.625,85.463 370.030,87.438 368.200 C 89.690 366.113,93.387 367.673,93.275 370.663 L 93.224 372.000 200.600 372.000 L 307.976 372.000 307.924 370.618 C 307.816 367.764,311.990 366.113,312.955 368.628 C 313.101 369.008,313.785 369.200,314.987 369.200 L 316.800 369.200 316.800 367.662 C 316.800 364.954,318.813 363.977,320.636 365.800 C 322.240 367.403,324.000 367.194,324.000 365.400 C 324.000 364.067,324.067 364.000,325.400 364.000 C 326.733 364.000,326.800 363.933,326.800 362.600 C 326.800 361.311,326.895 361.200,328.000 361.200 C 329.323 361.200,329.834 358.816,328.660 358.120 C 326.606 356.902,328.230 353.782,330.679 354.241 L 332.000 354.489 332.000 352.471 C 332.000 350.829,331.856 350.408,331.228 350.209 C 330.281 349.908,329.789 347.942,330.383 346.833 C 331.252 345.208,333.640 344.649,334.368 345.900 C 334.645 346.376,334.771 304.192,334.761 213.800 C 334.750 118.025,334.625 81.251,334.312 81.900 C 333.585 83.406,331.533 83.005,330.585 81.171 C 329.687 79.435,329.846 77.705,331.000 76.635 C 331.713 75.974,332.000 75.291,332.000 74.254 L 332.000 72.800 330.049 72.800 C 327.140 72.800,325.808 69.299,328.300 68.205 C 329.781 67.556,329.555 65.600,328.000 65.600 C 326.895 65.600,326.800 65.489,326.800 64.200 C 326.800 62.867,326.733 62.800,325.400 62.800 C 324.067 62.800,324.000 62.733,324.000 61.400 L 324.000 60.000 321.400 60.000 L 318.800 60.000 318.800 58.800 L 318.800 57.600 292.000 57.600 C 274.400 57.600,265.200 57.463,265.200 57.200 C 265.200 56.980,264.508 56.800,263.662 56.800 C 260.945 56.800,259.856 54.416,261.800 52.725 C 262.350 52.247,262.786 51.573,262.768 51.228 C 262.748 50.815,262.668 50.771,262.535 51.100 C 261.699 53.172,258.000 51.026,258.000 48.469 L 258.000 46.800 243.000 46.800 C 228.344 46.800,228.000 46.782,228.000 46.012 C 228.000 45.370,227.744 45.234,226.618 45.276 C 224.479 45.357,223.883 44.655,224.611 42.911 C 224.936 42.134,225.200 40.268,225.200 38.751 L 225.200 36.000 224.000 36.000 C 222.933 36.000,222.800 35.867,222.800 34.800 C 222.800 33.695,222.689 33.600,221.400 33.600 C 220.067 33.600,220.000 33.533,220.000 32.200 L 220.000 30.800 202.000 30.800 C 182.403 30.800,183.760 30.647,183.969 32.839 C 184.065 33.851,183.047 34.429,181.657 34.151 C 180.217 33.863,179.963 32.746,181.062 31.531 C 181.684 30.844,181.672 30.800,180.862 30.800 C 180.144 30.800,180.000 31.033,180.000 32.200 M214.870 41.609 C 214.945 41.834,215.705 42.074,216.558 42.141 C 219.086 42.340,219.879 44.682,218.284 47.237 C 217.767 48.066,216.187 48.108,215.526 47.311 C 215.196 46.913,211.791 46.800,200.151 46.800 L 185.200 46.800 185.200 44.000 L 185.200 41.200 199.967 41.200 C 209.678 41.200,214.780 41.340,214.870 41.609 M175.713 45.739 C 176.246 47.338,175.337 48.246,173.739 47.711 C 172.695 47.361,172.123 45.810,172.652 44.760 C 173.065 43.940,175.358 44.673,175.713 45.739 M134.800 55.433 C 134.800 55.782,135.014 55.995,135.275 55.908 C 136.017 55.661,136.140 54.800,135.433 54.800 C 135.085 54.800,134.800 55.085,134.800 55.433 M254.800 64.000 C 254.800 68.823,254.933 70.800,255.256 70.800 C 256.835 70.800,257.313 74.557,255.973 76.438 C 255.008 77.793,253.097 78.042,252.432 76.900 C 252.086 76.306,252.022 76.373,252.012 77.342 C 252.004 78.094,252.342 78.754,253.000 79.271 C 255.058 80.891,253.552 84.076,251.027 83.443 C 250.489 83.308,249.937 83.378,249.801 83.599 C 249.664 83.819,249.167 84.000,248.696 84.000 C 248.030 84.000,247.947 84.107,248.320 84.480 C 249.068 85.228,248.897 87.388,248.027 88.176 C 247.047 89.062,244.947 88.693,244.591 87.572 C 244.102 86.030,242.800 86.636,242.800 88.406 C 242.800 91.276,238.635 92.758,236.635 90.600 L 235.708 89.600 200.075 89.600 L 164.441 89.600 163.362 90.600 C 161.498 92.327,157.908 91.110,158.054 88.800 C 158.182 86.785,158.083 86.687,156.151 86.904 C 155.133 87.019,154.153 87.353,153.972 87.646 C 153.711 88.067,153.449 87.999,152.721 87.322 C 152.214 86.851,151.175 86.305,150.412 86.110 C 148.267 85.562,147.894 81.600,149.987 81.600 C 150.649 81.600,150.800 81.341,150.800 80.200 C 150.800 78.867,150.733 78.800,149.400 78.800 L 148.000 78.800 148.000 68.000 L 148.000 57.200 201.400 57.200 L 254.800 57.200 254.800 64.000 M76.138 60.617 C 75.791 61.521,76.102 61.569,76.900 60.733 C 77.492 60.113,77.506 60.000,76.987 60.000 C 76.651 60.000,76.268 60.278,76.138 60.617 M73.600 63.787 C 73.600 64.501,73.767 64.711,74.200 64.545 C 74.530 64.418,74.800 64.143,74.800 63.934 C 74.800 63.724,74.592 63.681,74.338 63.838 C 74.050 64.016,73.985 63.948,74.166 63.655 C 74.325 63.398,74.610 63.283,74.800 63.400 C 74.990 63.517,75.258 63.430,75.396 63.207 C 75.541 62.972,75.215 62.800,74.624 62.800 C 73.802 62.800,73.600 62.995,73.600 63.787 M137.600 72.213 C 137.600 75.509,137.725 76.473,138.176 76.646 C 138.492 76.767,138.874 77.426,139.024 78.110 C 139.544 80.479,136.415 81.430,135.080 79.308 C 134.828 78.908,130.239 78.800,113.380 78.800 L 92.000 78.800 92.000 80.200 C 92.000 81.489,91.905 81.600,90.800 81.600 L 89.600 81.600 89.600 212.400 L 89.600 343.200 91.124 343.200 C 93.431 343.200,94.214 343.973,94.131 346.168 C 94.064 347.915,94.581 348.635,95.041 347.437 C 96.024 344.875,99.358 346.224,99.130 349.092 L 98.994 350.800 200.797 350.788 C 270.146 350.780,302.377 350.646,301.900 350.368 C 301.489 350.128,301.200 349.483,301.200 348.803 C 301.200 346.798,303.566 345.913,304.836 347.443 C 305.913 348.741,307.645 348.132,307.517 346.500 C 307.415 345.194,307.520 344.983,308.329 344.868 C 309.897 344.646,310.593 345.083,309.945 345.882 C 309.570 346.344,309.556 346.460,309.900 346.253 C 310.175 346.088,310.400 346.121,310.400 346.327 C 310.400 346.870,309.373 347.640,309.063 347.330 C 308.918 347.185,308.800 347.277,308.800 347.533 C 308.800 347.790,309.250 348.000,309.800 348.000 C 310.764 348.000,310.800 347.907,310.800 345.400 L 310.800 342.800 312.000 342.800 C 312.879 342.800,313.198 342.612,313.194 342.100 C 313.190 341.668,313.075 341.569,312.894 341.840 C 312.128 342.987,310.477 342.710,309.730 341.308 C 308.807 339.578,310.030 338.167,312.066 338.614 L 313.200 338.864 313.200 213.832 L 313.200 88.800 311.731 88.800 C 308.970 88.800,307.845 86.425,309.800 84.725 C 310.350 84.247,310.786 83.573,310.768 83.228 C 310.748 82.815,310.668 82.771,310.535 83.100 C 309.714 85.135,306.000 83.037,306.000 80.538 L 306.000 78.800 285.580 78.800 C 267.666 78.800,265.009 78.878,263.926 79.438 C 262.719 80.063,262.671 80.052,261.760 78.938 C 259.742 76.471,261.083 72.581,263.850 72.877 C 264.996 73.000,265.000 72.992,265.119 70.500 L 265.238 68.000 289.419 68.000 L 313.600 68.000 313.600 69.400 C 313.600 71.222,315.724 71.553,316.164 69.800 C 316.663 67.814,320.800 68.586,320.800 70.664 C 320.800 71.162,321.173 71.916,321.629 72.341 C 322.373 73.034,322.410 73.272,321.993 74.664 C 321.224 77.232,321.569 78.625,322.938 78.479 C 325.924 78.161,327.558 82.925,324.767 83.811 C 323.535 84.202,323.563 342.592,324.795 342.915 C 327.649 343.661,325.895 350.056,322.989 349.500 C 321.606 349.236,321.250 350.164,322.290 351.320 C 324.050 353.277,323.329 355.227,320.761 355.459 C 319.273 355.594,316.695 356.310,317.500 356.366 C 317.814 356.387,318.000 357.016,318.000 358.056 C 318.000 360.751,316.016 361.653,314.164 359.800 C 312.669 358.305,311.848 358.464,312.171 360.185 C 312.721 363.120,306.693 365.215,305.800 362.399 C 305.547 361.603,305.157 361.600,200.273 361.607 L 95.000 361.614 94.058 362.607 C 92.386 364.369,88.621 363.087,88.833 360.828 C 88.984 359.217,88.777 358.800,87.825 358.800 C 87.018 358.800,86.829 358.577,86.725 357.500 C 86.614 356.348,86.448 356.185,85.259 356.072 C 84.369 355.986,84.008 356.090,84.186 356.378 C 84.334 356.617,84.586 356.732,84.747 356.633 C 85.260 356.316,86.013 357.029,86.202 358.010 C 86.489 359.502,84.260 360.277,83.235 359.042 C 82.980 358.735,82.150 358.367,81.391 358.225 C 79.109 357.797,78.337 354.666,80.300 353.805 C 81.814 353.141,81.581 350.800,80.000 350.800 L 78.800 350.800 78.800 213.400 L 78.800 76.000 80.000 76.000 C 81.444 76.000,81.707 73.981,80.523 71.978 C 79.885 70.897,79.887 70.788,80.556 70.048 C 81.292 69.235,83.600 69.550,83.600 70.463 C 83.600 71.682,86.604 70.564,86.725 69.300 L 86.851 68.000 112.225 68.000 L 137.600 68.000 137.600 72.213 M318.800 75.200 C 318.800 75.753,319.067 76.000,319.662 76.000 C 320.499 76.000,320.503 75.976,319.800 75.200 C 319.402 74.760,319.014 74.400,318.938 74.400 C 318.862 74.400,318.800 74.760,318.800 75.200 M153.896 84.282 C 154.390 84.377,155.065 84.842,155.396 85.316 C 155.998 86.175,156.000 86.174,156.000 85.089 C 156.000 84.088,155.879 84.004,154.500 84.054 C 153.578 84.088,153.346 84.176,153.896 84.282 M244.138 84.617 C 244.008 84.957,244.013 85.347,244.151 85.484 C 244.288 85.621,244.400 85.447,244.400 85.096 C 244.400 84.745,244.715 84.376,245.100 84.276 C 245.756 84.104,245.755 84.090,245.087 84.046 C 244.696 84.021,244.268 84.278,244.138 84.617 M142.800 90.600 C 142.800 91.933,142.867 92.000,144.200 92.000 C 145.533 92.000,145.600 92.067,145.600 93.400 C 145.600 94.760,147.888 95.694,148.050 94.400 C 148.078 94.180,148.123 93.788,148.150 93.529 C 148.401 91.168,152.560 92.782,152.722 95.303 L 152.844 97.200 154.322 97.193 C 155.370 97.188,156.074 96.897,156.742 96.193 C 158.756 94.070,162.800 95.539,162.800 98.394 L 162.800 100.000 200.400 100.000 L 238.000 100.000 238.000 98.547 C 238.000 96.900,238.981 95.799,240.807 95.398 C 241.946 95.148,244.000 96.079,244.000 96.846 C 244.000 97.041,244.914 97.200,246.032 97.200 C 248.052 97.200,248.062 97.193,247.816 96.074 C 247.228 93.398,250.536 92.157,252.043 94.488 C 252.678 95.469,254.598 94.619,254.725 93.300 C 254.836 92.157,254.992 92.000,256.025 92.000 C 257.101 92.000,257.200 91.882,257.200 90.600 L 257.200 89.200 280.000 89.200 L 302.800 89.200 302.800 213.420 C 302.800 324.519,302.865 337.766,303.416 338.832 C 304.167 340.284,303.907 340.800,302.425 340.800 C 300.452 340.800,299.695 338.352,301.519 337.872 C 301.915 337.768,301.741 337.673,301.100 337.646 C 300.134 337.606,300.000 337.746,300.000 338.800 L 300.000 340.000 200.000 340.000 L 100.000 340.000 100.000 214.600 L 100.000 89.200 121.400 89.200 L 142.800 89.200 142.800 90.600 M121.600 146.800 L 121.600 172.000 122.775 172.000 C 123.808 172.000,123.964 172.157,124.075 173.300 L 124.200 174.600 146.152 174.703 C 165.612 174.795,168.047 174.739,167.606 174.208 C 166.751 173.177,167.457 170.784,168.763 170.292 C 169.386 170.056,170.056 169.386,170.292 168.763 C 170.784 167.457,173.177 166.751,174.208 167.606 C 174.739 168.047,174.795 165.612,174.703 146.152 L 174.600 124.200 173.300 124.075 C 172.157 123.964,172.000 123.808,172.000 122.775 L 172.000 121.600 146.800 121.600 L 121.600 121.600 121.600 146.800 M185.600 129.800 L 185.600 132.800 187.320 132.800 C 189.481 132.800,190.000 133.319,190.000 135.480 L 190.000 137.200 197.600 137.200 L 205.200 137.200 205.196 135.700 C 205.194 134.518,205.448 133.988,206.396 133.200 C 207.575 132.220,207.594 132.146,207.342 129.500 L 207.084 126.800 196.342 126.800 L 185.600 126.800 185.600 129.800 M164.000 146.739 C 164.000 159.524,164.086 161.649,164.648 162.776 C 165.229 163.941,165.233 164.138,164.686 164.686 C 164.138 165.233,163.941 165.229,162.776 164.648 C 161.649 164.086,159.524 164.000,146.739 164.000 L 132.000 164.000 132.000 148.000 L 132.000 132.000 148.000 132.000 L 164.000 132.000 164.000 146.739 M211.200 133.971 C 211.200 134.175,210.885 134.424,210.500 134.524 C 210.069 134.637,210.223 134.725,210.900 134.754 C 211.632 134.784,212.000 134.599,212.000 134.200 C 212.000 133.870,211.820 133.600,211.600 133.600 C 211.380 133.600,211.200 133.767,211.200 133.971 M185.600 151.000 L 185.600 154.000 187.124 154.000 C 189.453 154.000,190.121 154.694,189.943 156.928 L 189.794 158.800 230.197 158.788 C 257.839 158.780,270.379 158.647,269.900 158.368 C 268.515 157.561,269.020 155.478,270.889 154.289 C 271.835 153.687,271.927 153.460,271.589 152.572 C 271.054 151.164,271.101 149.059,271.680 148.480 C 272.053 148.107,262.542 148.000,228.880 148.000 L 185.600 148.000 185.600 151.000 M275.067 155.067 C 274.606 155.527,274.775 156.000,275.400 156.000 C 275.730 156.000,276.000 155.730,276.000 155.400 C 276.000 154.775,275.527 154.606,275.067 155.067 M272.800 157.972 C 272.800 158.177,272.395 158.422,271.900 158.518 C 271.128 158.666,271.157 158.699,272.100 158.746 C 272.835 158.782,273.200 158.601,273.200 158.200 C 273.200 157.870,273.110 157.600,273.000 157.600 C 272.890 157.600,272.800 157.767,272.800 157.972 M124.000 192.200 C 124.000 193.489,123.905 193.600,122.800 193.600 L 121.600 193.600 121.600 215.133 L 121.600 236.667 123.413 236.667 C 125.686 236.667,126.133 237.114,126.133 239.387 C 126.133 241.467,126.134 241.468,127.491 240.400 C 129.587 238.751,131.310 239.662,131.272 242.398 L 131.250 244.000 147.075 244.000 L 162.900 244.000 162.653 242.767 C 162.184 240.419,164.267 239.010,165.857 240.600 C 167.179 241.922,168.800 241.372,168.800 239.600 L 168.800 238.000 170.400 238.000 C 172.304 238.000,172.524 237.142,171.177 234.963 C 170.524 233.906,170.445 233.464,170.791 232.816 C 171.359 231.756,173.772 231.678,174.368 232.700 C 174.669 233.216,174.779 232.512,174.788 230.020 C 174.797 227.391,174.693 226.747,174.320 227.120 C 172.742 228.698,170.000 227.083,170.000 224.577 L 170.000 222.800 167.000 222.800 L 164.000 222.800 164.000 226.820 C 164.000 229.712,164.178 231.185,164.636 232.070 C 165.539 233.816,164.691 234.719,162.775 234.051 C 161.905 233.748,156.650 233.600,146.740 233.600 L 132.000 233.600 132.000 217.400 L 132.000 201.200 148.018 201.200 L 164.036 201.200 165.018 202.182 C 166.290 203.453,166.262 204.536,164.931 205.583 C 164.343 206.045,163.664 206.820,163.423 207.304 C 163.182 207.788,162.564 208.394,162.050 208.650 C 161.536 208.906,160.906 209.536,160.650 210.050 C 160.394 210.564,159.738 211.207,159.192 211.478 C 158.646 211.750,158.103 212.377,157.985 212.872 C 157.867 213.366,157.370 213.867,156.881 213.985 C 156.391 214.103,155.635 214.785,155.201 215.500 C 154.002 217.474,150.162 216.801,149.428 214.488 C 149.294 214.067,148.734 213.516,148.184 213.266 C 147.634 213.015,147.012 212.358,146.802 211.805 C 146.592 211.252,146.173 210.800,145.872 210.800 C 145.157 210.800,143.926 209.430,144.021 208.739 C 144.275 206.883,144.138 206.800,140.784 206.800 L 137.569 206.800 137.684 210.300 L 137.800 213.800 139.099 213.675 C 140.221 213.566,140.511 213.742,141.238 214.974 C 141.700 215.758,142.198 216.325,142.344 216.235 C 142.732 215.995,143.808 216.889,144.116 217.709 C 144.262 218.099,144.701 218.535,145.091 218.679 C 145.764 218.926,146.567 219.886,146.590 220.470 C 146.615 221.123,149.991 222.952,152.191 223.505 C 153.516 223.838,154.955 224.356,155.389 224.655 C 156.940 225.726,158.800 225.369,158.800 224.000 C 158.800 222.933,158.933 222.800,160.000 222.800 C 161.105 222.800,161.200 222.689,161.200 221.400 C 161.200 220.067,161.267 220.000,162.600 220.000 C 163.933 220.000,164.000 219.933,164.000 218.600 C 164.000 217.267,164.067 217.200,165.400 217.200 C 166.689 217.200,166.800 217.105,166.800 216.000 C 166.800 214.933,166.933 214.800,168.000 214.800 C 169.105 214.800,169.200 214.689,169.200 213.400 C 169.200 212.067,169.267 212.000,170.600 212.000 C 171.933 212.000,172.000 211.933,172.000 210.600 C 172.000 209.267,172.067 209.200,173.400 209.200 C 174.689 209.200,174.800 209.105,174.800 208.000 C 174.800 206.933,174.933 206.800,176.000 206.800 C 177.105 206.800,177.200 206.689,177.200 205.400 C 177.200 204.067,177.267 204.000,178.600 204.000 C 179.933 204.000,180.000 203.933,180.000 202.600 C 180.000 201.267,180.067 201.200,181.400 201.200 C 182.824 201.200,183.546 199.308,182.394 198.596 C 181.590 198.099,180.779 195.407,180.747 193.127 L 180.714 190.800 178.757 190.800 L 176.800 190.800 176.800 192.538 C 176.800 195.470,174.149 196.733,172.471 194.600 C 171.934 193.917,171.291 193.600,170.442 193.600 C 169.289 193.600,169.200 193.500,169.200 192.200 L 169.200 190.800 146.600 190.800 L 124.000 190.800 124.000 192.200 M184.800 197.972 C 184.800 198.177,184.395 198.422,183.900 198.518 C 183.128 198.666,183.157 198.699,184.100 198.746 C 184.835 198.782,185.200 198.601,185.200 198.200 C 185.200 197.870,185.110 197.600,185.000 197.600 C 184.890 197.600,184.800 197.767,184.800 197.972 M185.600 204.400 L 185.600 207.200 187.100 207.213 C 189.312 207.231,190.067 207.983,190.067 210.168 L 190.067 212.000 216.233 212.000 C 236.883 212.000,242.407 211.895,242.432 211.500 C 242.450 211.225,242.502 210.486,242.548 209.857 C 242.600 209.137,243.032 208.421,243.715 207.924 C 244.714 207.196,244.800 206.915,244.800 204.367 L 244.800 201.600 215.200 201.600 L 185.600 201.600 185.600 204.400 M147.000 207.600 C 147.398 208.040,147.786 208.400,147.862 208.400 C 147.938 208.400,148.000 208.040,148.000 207.600 C 148.000 207.047,147.733 206.800,147.138 206.800 C 146.301 206.800,146.297 206.824,147.000 207.600 M149.690 210.100 C 150.043 210.375,150.417 210.960,150.520 211.400 C 150.639 211.909,150.724 211.727,150.754 210.900 C 150.792 209.815,150.655 209.600,149.924 209.600 C 149.146 209.600,149.120 209.657,149.690 210.100 M246.400 210.600 C 246.400 210.930,246.220 211.200,246.000 211.200 C 245.780 211.200,245.600 211.380,245.600 211.600 C 245.600 211.820,245.870 212.000,246.200 212.000 C 246.573 212.000,246.800 211.622,246.800 211.000 C 246.800 210.450,246.710 210.000,246.600 210.000 C 246.490 210.000,246.400 210.270,246.400 210.600 M140.046 218.500 C 140.007 219.784,140.124 220.000,140.862 220.000 C 141.653 220.000,141.673 219.942,141.103 219.300 C 140.762 218.915,140.395 218.240,140.288 217.800 C 140.176 217.343,140.073 217.643,140.046 218.500 M142.800 221.938 C 142.800 222.676,143.016 222.793,144.300 222.754 C 145.157 222.727,145.457 222.624,145.000 222.512 C 144.560 222.405,143.885 222.038,143.500 221.697 C 142.858 221.127,142.800 221.147,142.800 221.938 M185.600 225.800 L 185.600 228.800 187.320 228.800 C 189.481 228.800,190.000 229.319,190.000 231.480 L 190.000 233.200 229.600 233.200 L 269.200 233.200 269.196 231.700 C 269.194 230.518,269.448 229.988,270.396 229.200 C 271.575 228.220,271.594 228.146,271.342 225.500 L 271.084 222.800 228.342 222.800 L 185.600 222.800 185.600 225.800 M155.067 227.067 C 154.606 227.527,154.775 228.000,155.400 228.000 C 155.730 228.000,156.000 227.730,156.000 227.400 C 156.000 226.775,155.527 226.606,155.067 227.067 M275.200 229.971 C 275.200 230.175,274.885 230.424,274.500 230.524 C 274.069 230.637,274.223 230.725,274.900 230.754 C 275.632 230.784,276.000 230.599,276.000 230.200 C 276.000 229.870,275.820 229.600,275.600 229.600 C 275.380 229.600,275.200 229.767,275.200 229.971 M161.600 231.676 C 161.600 232.447,161.660 232.477,162.100 231.922 C 162.375 231.576,162.870 231.196,163.200 231.078 C 163.532 230.959,163.308 230.849,162.700 230.832 C 161.825 230.806,161.600 230.979,161.600 231.676 M174.400 234.400 C 174.400 234.840,174.220 235.200,174.000 235.200 C 173.780 235.200,173.600 235.380,173.600 235.600 C 173.600 235.820,173.870 236.000,174.200 236.000 C 174.600 236.000,174.800 235.600,174.800 234.800 C 174.800 234.140,174.710 233.600,174.600 233.600 C 174.490 233.600,174.400 233.960,174.400 234.400 M171.550 239.400 C 171.523 239.510,171.478 239.765,171.450 239.967 C 171.423 240.168,171.236 240.483,171.036 240.667 C 170.824 240.860,170.792 240.790,170.959 240.500 C 171.118 240.225,171.076 240.000,170.866 240.000 C 170.657 240.000,170.382 240.270,170.255 240.600 C 170.089 241.033,170.299 241.200,171.013 241.200 C 171.799 241.200,172.000 240.997,172.000 240.200 C 172.000 239.339,171.699 238.804,171.550 239.400 M166.400 242.400 C 166.400 242.840,166.220 243.200,166.000 243.200 C 165.780 243.200,165.600 243.380,165.600 243.600 C 165.600 243.820,165.870 244.000,166.200 244.000 C 166.600 244.000,166.800 243.600,166.800 242.800 C 166.800 242.140,166.710 241.600,166.600 241.600 C 166.490 241.600,166.400 241.960,166.400 242.400 M121.600 285.400 L 121.600 310.800 122.800 310.800 C 123.867 310.800,124.000 310.933,124.000 312.003 L 124.000 313.207 145.700 313.103 L 167.400 313.000 167.279 311.862 C 167.139 310.551,168.136 308.800,169.022 308.800 C 169.354 308.800,169.737 308.485,169.873 308.100 C 170.543 306.212,173.947 305.044,174.535 306.500 C 174.646 306.775,174.751 297.055,174.768 284.900 L 174.800 262.800 173.400 262.800 C 172.067 262.800,172.000 262.733,172.000 261.400 L 172.000 260.000 146.800 260.000 L 121.600 260.000 121.600 285.400 M164.000 285.400 L 164.000 300.000 162.800 300.000 C 161.832 300.000,161.600 300.169,161.600 300.876 C 161.600 301.708,161.627 301.716,162.138 301.017 C 162.914 299.957,164.629 300.465,164.979 301.859 C 165.400 303.536,164.444 304.250,162.870 303.436 C 161.810 302.888,159.583 302.800,146.820 302.800 L 132.000 302.800 132.000 286.800 L 132.000 270.800 148.000 270.800 L 164.000 270.800 164.000 285.400 M185.600 273.800 L 185.600 276.800 187.320 276.800 C 189.483 276.800,190.000 277.319,190.000 279.487 L 190.000 281.214 200.300 281.107 C 210.334 281.003,210.598 280.979,210.505 280.200 C 210.334 278.755,210.763 277.755,211.790 277.206 C 212.737 276.699,212.798 276.480,212.757 273.732 L 212.712 270.800 199.156 270.800 L 185.600 270.800 185.600 273.800 M216.800 277.972 C 216.800 278.177,216.395 278.422,215.900 278.518 C 215.128 278.666,215.157 278.699,216.100 278.746 C 216.835 278.782,217.200 278.601,217.200 278.200 C 217.200 277.870,217.110 277.600,217.000 277.600 C 216.890 277.600,216.800 277.767,216.800 277.972 M214.400 279.967 C 214.400 280.388,214.175 280.824,213.900 280.935 C 213.601 281.056,213.682 281.150,214.100 281.168 C 214.588 281.190,214.800 280.898,214.800 280.200 C 214.800 279.650,214.710 279.200,214.600 279.200 C 214.490 279.200,214.400 279.545,214.400 279.967 M185.600 295.000 L 185.600 298.000 187.124 298.000 C 189.453 298.000,190.121 298.694,189.943 300.928 L 189.794 302.800 230.197 302.788 C 257.839 302.780,270.379 302.647,269.900 302.368 C 268.515 301.561,269.020 299.478,270.889 298.289 C 271.835 297.687,271.927 297.460,271.589 296.572 C 271.054 295.164,271.101 293.059,271.680 292.480 C 272.053 292.107,262.542 292.000,228.880 292.000 L 185.600 292.000 185.600 295.000 M275.067 299.067 C 274.606 299.527,274.775 300.000,275.400 300.000 C 275.730 300.000,276.000 299.730,276.000 299.400 C 276.000 298.775,275.527 298.606,275.067 299.067 M272.800 301.972 C 272.800 302.177,272.395 302.422,271.900 302.518 C 271.128 302.666,271.157 302.699,272.100 302.746 C 272.835 302.782,273.200 302.601,273.200 302.200 C 273.200 301.870,273.110 301.600,273.000 301.600 C 272.890 301.600,272.800 301.767,272.800 301.972 M334.400 349.704 C 334.400 350.055,334.085 350.424,333.700 350.524 C 333.044 350.696,333.045 350.710,333.713 350.754 C 334.436 350.801,335.106 349.773,334.649 349.316 C 334.512 349.179,334.400 349.353,334.400 349.704 M304.800 349.973 C 304.800 350.179,304.305 350.422,303.700 350.513 C 302.676 350.669,302.690 350.684,303.900 350.740 C 304.816 350.782,305.200 350.623,305.200 350.200 C 305.200 349.870,305.110 349.600,305.000 349.600 C 304.890 349.600,304.800 349.768,304.800 349.973 " stroke="none" fill="#fcfcfc" fill-rule="evenodd"></path><path id="path1" d="M259.676 48.300 C 259.794 49.724,259.877 49.806,261.330 49.926 C 262.724 50.041,262.848 49.971,262.730 49.134 C 262.376 46.634,259.472 45.840,259.676 48.300 M328.972 68.968 C 328.520 70.770,328.892 71.390,330.503 71.524 L 332.000 71.648 332.000 70.067 C 332.000 68.445,331.564 68.000,329.975 68.000 C 329.505 68.000,329.123 68.369,328.972 68.968 M316.600 70.696 C 315.797 71.306,316.185 72.576,317.293 72.965 C 318.595 73.423,318.701 73.345,318.870 71.797 C 319.003 70.570,317.639 69.908,316.600 70.696 M252.243 71.433 C 251.500 73.369,251.954 74.669,253.393 74.723 C 255.157 74.789,255.781 73.839,255.154 72.039 C 254.668 70.645,252.702 70.235,252.243 71.433 M332.000 77.674 C 332.000 79.124,332.047 79.174,333.354 79.125 C 334.493 79.082,334.699 78.931,334.654 78.175 C 334.624 77.681,334.434 77.379,334.232 77.504 C 334.030 77.629,333.975 77.441,334.112 77.086 C 334.294 76.611,334.189 76.506,333.714 76.688 C 333.351 76.828,333.172 76.769,333.305 76.554 C 333.435 76.343,333.194 76.171,332.771 76.171 C 332.147 76.171,332.000 76.457,332.000 77.674 M307.676 80.300 C 307.794 81.724,307.877 81.806,309.330 81.926 C 310.724 82.041,310.848 81.971,310.730 81.134 C 310.376 78.634,307.472 77.840,307.676 80.300 M321.700 82.195 C 321.859 84.417,323.996 84.637,324.438 82.477 C 324.751 80.947,324.618 80.800,322.934 80.800 C 321.659 80.800,321.605 80.861,321.700 82.195 M150.600 81.933 C 150.490 82.043,150.400 82.655,150.400 83.292 C 150.400 84.717,152.834 84.857,153.037 83.444 C 153.211 82.230,151.416 81.117,150.600 81.933 M160.800 88.176 C 160.800 89.813,161.215 90.148,162.810 89.798 C 164.240 89.484,164.320 88.840,163.074 87.670 C 161.656 86.337,160.800 86.528,160.800 88.176 M236.243 87.433 C 235.522 89.310,236.521 90.264,238.859 89.933 C 239.628 89.824,239.823 89.526,239.924 88.300 L 240.048 86.800 238.267 86.800 C 237.012 86.800,236.414 86.987,236.243 87.433 M149.107 94.464 C 147.327 95.112,148.045 97.200,150.048 97.200 C 151.186 97.200,151.242 97.124,151.124 95.731 C 150.985 94.083,150.680 93.892,149.107 94.464 M156.698 97.076 C 156.204 97.205,156.047 97.545,156.170 98.223 C 156.596 100.575,159.850 100.997,159.915 98.709 C 159.965 96.954,159.014 96.471,156.698 97.076 M240.877 98.600 C 240.940 100.285,241.819 100.470,243.130 99.074 C 244.419 97.703,244.226 97.200,242.412 97.200 C 240.854 97.200,240.825 97.226,240.877 98.600 M209.200 128.423 C 209.200 129.934,209.236 129.974,210.570 129.924 C 212.138 129.865,212.375 128.863,211.094 127.704 C 209.771 126.507,209.200 126.723,209.200 128.423 M185.955 135.300 C 186.456 136.672,188.160 137.433,188.332 136.362 C 188.551 134.997,188.092 134.400,186.825 134.400 C 185.751 134.400,185.660 134.494,185.955 135.300 M273.232 149.488 C 273.200 151.163,273.210 151.175,274.590 151.123 C 276.147 151.065,276.541 149.426,275.107 148.970 C 274.689 148.838,274.506 148.546,274.671 148.271 C 274.852 147.969,274.725 147.985,274.316 148.317 C 273.794 148.739,273.640 148.739,273.470 148.317 C 273.356 148.033,273.249 148.560,273.232 149.488 M185.773 156.900 C 185.865 157.395,185.957 157.980,185.976 158.200 C 185.996 158.420,186.187 158.330,186.400 158.000 C 186.699 157.537,186.789 157.524,186.794 157.943 C 186.797 158.249,187.050 158.390,187.374 158.265 C 187.690 158.144,188.019 158.258,188.106 158.517 C 188.192 158.777,188.289 158.317,188.319 157.495 C 188.374 156.045,188.334 156.000,186.990 156.000 C 185.771 156.000,185.625 156.108,185.773 156.900 M172.800 191.550 C 171.743 192.755,171.886 193.477,173.235 193.747 C 174.881 194.076,175.200 193.821,175.200 192.176 C 175.200 190.606,173.921 190.273,172.800 191.550 M182.541 192.348 C 182.595 193.666,182.715 193.811,183.849 193.922 C 185.038 194.037,185.095 193.977,185.049 192.656 C 185.011 191.596,184.882 191.367,184.500 191.684 C 184.173 191.955,184.000 191.959,184.000 191.696 C 184.000 191.474,183.658 191.204,183.241 191.095 C 182.591 190.925,182.490 191.106,182.541 192.348 M246.400 202.825 C 246.400 204.092,246.997 204.551,248.362 204.332 C 249.433 204.160,248.672 202.456,247.300 201.955 C 246.494 201.660,246.400 201.751,246.400 202.825 M159.500 204.885 C 159.115 205.278,158.800 205.870,158.800 206.200 C 158.800 206.530,158.530 206.800,158.200 206.800 C 157.870 206.800,157.240 207.160,156.800 207.600 C 156.360 208.040,156.096 208.400,156.214 208.400 C 156.332 208.400,156.233 208.765,155.994 209.211 C 155.755 209.657,155.388 209.916,155.177 209.786 C 154.665 209.469,153.481 210.685,153.800 211.200 C 153.938 211.423,153.798 211.703,153.489 211.821 C 153.174 211.942,152.906 212.641,152.876 213.418 C 152.819 214.941,153.469 215.334,153.672 213.900 C 153.761 213.276,154.207 212.880,155.128 212.609 C 156.111 212.320,156.513 211.936,156.674 211.132 C 156.835 210.325,157.163 210.013,157.944 209.922 C 158.763 209.827,159.041 209.534,159.200 208.600 C 159.362 207.644,159.631 207.374,160.526 207.271 C 161.797 207.125,162.198 206.442,161.842 205.024 C 161.556 203.885,160.538 203.825,159.500 204.885 M185.782 210.367 C 185.794 211.256,185.917 211.435,186.299 211.118 C 186.626 210.847,186.800 210.842,186.800 211.104 C 186.800 212.354,188.277 211.814,188.325 210.546 C 188.373 209.283,188.295 209.200,187.071 209.200 C 185.893 209.200,185.768 209.313,185.782 210.367 M172.000 224.225 C 172.000 225.553,172.051 225.599,173.500 225.568 C 174.325 225.551,174.767 225.444,174.483 225.330 C 174.061 225.160,174.061 225.006,174.483 224.484 C 174.815 224.075,174.831 223.948,174.529 224.129 C 174.254 224.294,173.962 224.111,173.829 223.691 C 173.384 222.288,172.000 222.692,172.000 224.225 M273.200 224.423 C 273.200 225.934,273.236 225.974,274.570 225.924 C 276.138 225.865,276.375 224.863,275.094 223.704 C 273.771 222.507,273.200 222.723,273.200 224.423 M148.317 225.470 C 148.739 225.640,148.739 225.794,148.317 226.316 C 147.985 226.725,147.969 226.852,148.271 226.671 C 148.546 226.506,148.838 226.689,148.970 227.107 C 149.426 228.541,151.065 228.147,151.123 226.590 C 151.175 225.210,151.163 225.200,149.488 225.232 C 148.560 225.249,148.033 225.356,148.317 225.470 M185.955 231.300 C 186.456 232.672,188.160 233.433,188.332 232.362 C 188.551 230.997,188.092 230.400,186.825 230.400 C 185.751 230.400,185.660 230.494,185.955 231.300 M121.710 239.300 C 121.857 241.481,124.400 241.930,124.400 239.775 C 124.400 238.475,124.325 238.400,123.025 238.400 C 121.847 238.400,121.658 238.529,121.710 239.300 M214.541 272.348 C 214.595 273.666,214.715 273.811,215.849 273.922 C 217.038 274.037,217.095 273.977,217.049 272.656 C 217.011 271.596,216.882 271.367,216.500 271.684 C 216.173 271.955,216.000 271.959,216.000 271.696 C 216.000 271.474,215.658 271.204,215.241 271.095 C 214.591 270.925,214.490 271.106,214.541 272.348 M185.955 279.300 C 186.456 280.672,188.160 281.433,188.332 280.362 C 188.551 278.997,188.092 278.400,186.825 278.400 C 185.751 278.400,185.660 278.494,185.955 279.300 M273.232 293.488 C 273.200 295.163,273.210 295.175,274.590 295.123 C 276.147 295.065,276.541 293.426,275.107 292.970 C 274.689 292.838,274.506 292.546,274.671 292.271 C 274.852 291.969,274.725 291.985,274.316 292.317 C 273.794 292.739,273.640 292.739,273.470 292.317 C 273.356 292.033,273.249 292.560,273.232 293.488 M185.773 300.900 C 185.865 301.395,185.957 301.980,185.976 302.200 C 185.996 302.420,186.187 302.330,186.400 302.000 C 186.699 301.537,186.789 301.524,186.794 301.943 C 186.797 302.249,187.050 302.390,187.374 302.265 C 187.690 302.144,188.019 302.258,188.106 302.517 C 188.192 302.777,188.289 302.317,188.319 301.495 C 188.374 300.045,188.334 300.000,186.990 300.000 C 185.771 300.000,185.625 300.108,185.773 300.900 M172.000 308.649 C 172.000 309.180,172.109 309.208,172.600 308.800 C 172.930 308.526,173.200 308.234,173.200 308.151 C 173.200 308.068,172.930 308.000,172.600 308.000 C 172.270 308.000,172.000 308.292,172.000 308.649 M169.654 311.867 C 169.704 312.905,169.724 312.919,169.891 312.035 C 170.035 311.269,170.154 311.186,170.467 311.635 C 170.804 312.118,170.838 312.117,170.705 311.625 C 170.405 310.514,169.598 310.699,169.654 311.867 M322.100 343.058 C 320.929 343.547,321.495 346.800,322.751 346.800 C 324.366 346.800,325.004 345.908,324.542 344.292 C 324.181 343.026,323.273 342.567,322.100 343.058 M89.698 346.174 C 89.754 346.957,89.890 347.619,90.000 347.645 C 92.117 348.136,92.447 347.970,92.323 346.478 C 92.211 345.133,92.083 344.989,90.898 344.875 C 89.634 344.753,89.599 344.790,89.698 346.174 M81.016 354.677 C 80.689 355.982,81.189 356.500,82.615 356.331 C 84.526 356.106,84.369 353.855,82.433 353.719 C 81.491 353.653,81.229 353.830,81.016 354.677 M91.278 360.162 C 91.220 361.716,91.791 362.102,93.610 361.738 C 94.950 361.470,95.051 360.696,93.900 359.517 C 92.663 358.250,91.338 358.576,91.278 360.162 M306.100 359.065 C 305.144 359.451,305.502 361.560,306.568 361.828 C 308.370 362.280,308.990 361.908,309.124 360.297 C 309.250 358.778,308.036 358.284,306.100 359.065 M79.417 366.538 C 78.123 367.484,78.890 369.200,80.608 369.200 C 81.965 369.200,82.000 369.160,82.000 367.600 C 82.000 365.836,80.961 365.409,79.417 366.538 M86.800 369.730 C 86.800 371.732,89.849 372.581,89.923 370.600 C 89.975 369.226,89.946 369.200,88.388 369.200 C 87.336 369.200,86.800 369.379,86.800 369.730 " stroke="none" fill="#fcdbda" fill-rule="evenodd"></path><path id="path2" d="M215.500 43.114 C 215.017 43.214,214.800 43.639,214.800 44.485 C 214.800 46.718,217.259 47.349,218.033 45.314 C 218.684 43.602,217.616 42.675,215.500 43.114 M258.490 48.397 C 258.615 50.438,259.721 51.308,261.700 50.922 C 263.296 50.610,263.051 50.131,261.394 50.325 C 259.696 50.523,258.670 49.791,258.907 48.550 C 259.002 48.056,258.922 47.415,258.730 47.126 C 258.510 46.796,258.421 47.270,258.490 48.397 M262.498 52.500 C 261.753 53.431,261.523 54.825,262.016 55.419 C 262.668 56.205,265.200 56.198,265.200 55.410 C 265.200 54.968,264.900 54.880,264.006 55.059 C 262.584 55.343,262.166 54.668,262.774 53.069 C 263.216 51.907,263.124 51.718,262.498 52.500 M76.800 60.800 C 75.736 61.864,75.896 62.799,77.275 63.573 C 78.726 64.387,80.032 63.322,79.883 61.446 C 79.755 59.844,78.102 59.498,76.800 60.800 M78.800 61.804 C 78.800 62.599,78.599 62.800,77.804 62.800 C 76.429 62.800,76.500 60.999,77.881 60.885 C 78.614 60.824,78.800 61.010,78.800 61.804 M71.500 65.903 C 70.302 66.169,70.546 68.721,71.799 69.036 C 73.734 69.521,74.879 68.336,74.078 66.678 C 73.680 65.853,73.653 65.874,73.627 67.033 C 73.605 68.033,73.441 68.255,72.756 68.204 C 71.558 68.116,70.986 66.959,71.890 66.454 C 72.717 65.991,72.498 65.681,71.500 65.903 M328.481 68.502 C 326.687 70.664,328.757 73.407,331.400 72.370 C 331.992 72.138,331.761 72.049,330.514 72.028 C 328.344 71.992,327.670 70.998,328.598 69.204 C 329.247 67.949,329.196 67.641,328.481 68.502 M316.925 69.900 C 316.506 70.285,316.351 70.483,316.581 70.339 C 318.454 69.172,320.286 70.286,319.379 72.040 C 318.802 73.156,319.223 73.726,319.866 72.700 C 321.318 70.384,318.904 68.085,316.925 69.900 M81.353 71.277 C 81.225 71.484,81.253 71.776,81.415 71.927 C 81.577 72.077,81.797 71.955,81.903 71.655 C 82.044 71.259,82.176 71.237,82.384 71.574 C 82.593 71.913,82.798 71.885,83.143 71.469 C 83.530 71.002,83.432 70.900,82.600 70.900 C 82.042 70.900,81.481 71.069,81.353 71.277 M255.357 71.686 C 256.723 73.992,255.474 76.053,253.191 75.257 C 252.103 74.878,251.962 74.908,252.076 75.501 C 252.238 76.338,254.384 76.592,255.346 75.889 C 256.485 75.056,256.619 72.743,255.594 71.591 L 254.713 70.600 255.357 71.686 M261.783 74.970 C 260.779 76.502,261.901 78.400,263.810 78.400 C 264.779 78.400,265.200 78.218,265.200 77.800 C 265.200 77.380,264.776 77.200,263.787 77.200 C 262.846 77.200,262.291 76.981,262.122 76.542 C 261.782 75.655,263.077 74.754,264.265 75.052 C 264.955 75.225,265.200 75.118,265.200 74.643 C 265.200 73.540,262.554 73.793,261.783 74.970 M137.186 76.774 C 137.912 78.131,137.688 78.799,136.500 78.813 C 135.442 78.825,135.430 78.848,136.184 79.418 C 137.079 80.095,137.574 80.021,138.140 79.123 C 138.574 78.434,137.793 76.000,137.137 76.000 C 136.933 76.000,136.955 76.342,137.186 76.774 M135.227 76.967 C 134.956 77.294,134.818 77.885,134.921 78.281 C 135.064 78.832,135.118 78.784,135.154 78.076 C 135.183 77.487,135.367 77.256,135.662 77.438 C 135.948 77.615,136.015 77.548,135.838 77.262 C 135.681 77.008,135.728 76.800,135.943 76.800 C 136.158 76.800,136.425 76.985,136.537 77.210 C 136.649 77.436,136.697 77.402,136.645 77.135 C 136.499 76.391,135.776 76.306,135.227 76.967 M330.991 77.358 C 329.736 79.273,331.032 81.200,333.574 81.200 C 334.646 81.200,334.799 81.062,334.794 80.100 C 334.790 79.464,334.662 79.197,334.490 79.468 C 333.200 81.497,330.515 79.622,331.527 77.400 C 332.105 76.131,331.810 76.108,330.991 77.358 M306.490 80.397 C 306.615 82.438,307.721 83.308,309.700 82.922 C 311.296 82.610,311.051 82.131,309.394 82.325 C 307.696 82.523,306.670 81.791,306.907 80.550 C 307.002 80.056,306.922 79.415,306.730 79.126 C 306.510 78.796,306.421 79.270,306.490 80.397 M321.600 79.600 C 321.600 79.820,322.224 80.000,322.986 80.000 C 324.710 80.000,325.403 81.014,324.787 82.633 C 324.437 83.554,324.461 83.647,324.944 83.246 C 326.635 81.843,325.347 79.200,322.971 79.200 C 322.217 79.200,321.600 79.380,321.600 79.600 M252.404 80.408 C 253.006 81.532,252.586 82.000,250.976 82.000 C 250.219 82.000,249.600 82.180,249.600 82.400 C 249.600 83.042,252.070 82.860,252.842 82.162 C 253.563 81.510,253.174 79.600,252.322 79.600 C 252.129 79.600,252.167 79.964,252.404 80.408 M149.614 82.374 C 149.063 83.403,149.090 84.530,149.680 85.120 C 150.360 85.800,152.666 85.727,152.938 85.017 C 153.119 84.545,152.971 84.507,152.155 84.817 C 150.411 85.480,149.481 84.609,150.000 82.799 C 150.393 81.429,150.221 81.240,149.614 82.374 M246.523 84.280 C 247.065 84.421,247.215 84.784,247.123 85.734 C 246.976 87.247,245.703 87.646,244.586 86.528 C 244.189 86.132,243.949 86.048,244.046 86.339 C 244.376 87.327,246.338 88.235,247.104 87.755 C 248.424 86.927,248.281 83.990,246.923 84.046 C 246.204 84.076,246.060 84.160,246.523 84.280 M310.498 84.500 C 309.753 85.431,309.523 86.825,310.016 87.419 C 310.668 88.205,313.200 88.198,313.200 87.410 C 313.200 86.968,312.900 86.880,312.006 87.059 C 310.584 87.343,310.166 86.668,310.774 85.069 C 311.216 83.907,311.124 83.718,310.498 84.500 M159.200 88.229 C 159.200 90.485,161.551 91.857,162.930 90.405 C 163.299 90.016,163.207 89.969,162.500 90.182 C 160.811 90.692,160.000 90.105,160.000 88.373 C 160.000 87.508,159.820 86.800,159.600 86.800 C 159.380 86.800,159.200 87.443,159.200 88.229 M240.800 88.191 C 240.800 90.028,239.445 91.025,237.799 90.399 C 236.291 89.826,236.075 90.168,237.557 90.782 C 239.640 91.645,242.246 89.625,241.707 87.566 C 241.377 86.303,240.800 86.700,240.800 88.191 M149.786 93.193 C 149.338 93.368,148.735 93.796,148.446 94.145 C 147.967 94.722,148.029 94.724,149.145 94.167 C 150.845 93.319,151.898 93.933,152.123 95.901 C 152.275 97.239,152.288 97.212,152.247 95.646 C 152.194 93.647,151.189 92.646,149.786 93.193 M249.071 94.262 C 248.312 95.022,248.801 97.227,249.700 97.099 C 251.481 96.846,252.498 95.439,251.400 94.748 C 250.628 94.263,249.339 93.994,249.071 94.262 M157.642 96.038 C 157.115 96.246,156.786 96.520,156.912 96.645 C 157.037 96.771,157.463 96.693,157.858 96.472 C 159.006 95.829,160.931 97.003,160.701 98.205 C 160.506 99.225,160.986 100.347,161.428 99.905 C 163.073 98.260,159.988 95.108,157.642 96.038 M239.862 96.731 C 239.145 97.523,238.947 100.000,239.600 100.000 C 240.026 100.000,240.131 99.532,240.019 98.127 C 239.959 97.369,241.197 96.175,241.647 96.558 C 241.731 96.629,242.340 96.815,243.000 96.970 C 244.142 97.239,244.161 97.223,243.400 96.639 C 242.310 95.803,240.663 95.846,239.862 96.731 M208.157 129.000 C 208.288 130.320,208.467 131.985,208.556 132.700 C 208.699 133.845,208.605 134.000,207.773 134.000 C 206.663 134.000,205.947 135.111,206.267 136.335 C 206.514 137.278,206.996 137.453,207.426 136.757 C 207.603 136.472,207.789 136.456,207.950 136.713 C 208.105 136.960,208.397 136.900,208.716 136.556 C 209.080 136.163,209.095 136.000,208.767 136.000 C 208.052 136.000,209.098 134.886,210.117 134.563 C 211.369 134.165,212.125 133.326,211.496 133.032 C 211.102 132.848,211.103 132.752,211.500 132.567 C 211.775 132.438,212.000 132.078,212.000 131.767 C 212.000 131.182,211.621 131.063,210.138 131.179 C 209.063 131.264,208.765 130.793,208.601 128.751 C 208.529 127.864,208.347 127.017,208.196 126.869 C 208.045 126.721,208.027 127.680,208.157 129.000 M185.600 133.600 C 185.600 133.820,186.320 134.000,187.200 134.000 L 188.800 134.000 188.800 135.600 C 188.800 136.480,188.980 137.200,189.200 137.200 C 189.904 137.200,189.642 134.562,188.869 133.862 C 188.077 133.145,185.600 132.947,185.600 133.600 M272.000 150.176 C 272.000 151.373,272.160 152.452,272.356 152.573 C 273.250 153.126,273.073 155.593,272.151 155.425 C 270.700 155.162,269.940 155.999,270.245 157.524 C 270.447 158.537,270.659 158.781,271.154 158.574 C 271.509 158.426,272.017 158.296,272.283 158.286 C 272.548 158.275,272.861 158.017,272.978 157.713 C 273.095 157.408,273.013 157.268,272.795 157.403 C 272.578 157.537,272.400 157.467,272.400 157.246 C 272.400 156.791,274.007 155.570,274.365 155.753 C 274.815 155.983,275.801 154.585,275.922 153.547 C 275.999 152.886,275.815 152.415,275.422 152.264 C 275.080 152.133,274.800 152.161,274.800 152.327 C 274.800 152.493,274.436 152.629,273.990 152.629 C 272.903 152.629,272.091 150.124,272.768 148.859 C 273.146 148.154,273.118 148.000,272.614 148.000 C 272.137 148.000,272.000 148.486,272.000 150.176 M186.200 154.784 C 185.557 155.047,185.715 155.140,187.000 155.256 C 188.593 155.399,188.600 155.407,188.600 157.101 C 188.600 158.195,188.778 158.801,189.100 158.801 C 190.032 158.800,189.715 155.726,188.711 155.023 C 187.729 154.335,187.378 154.301,186.200 154.784 M169.900 170.009 C 167.974 171.992,167.160 174.800,168.511 174.800 C 168.865 174.800,168.975 174.312,168.869 173.206 C 168.734 171.789,168.834 171.567,169.766 171.213 C 170.342 170.994,170.994 170.342,171.213 169.766 C 171.567 168.834,171.789 168.734,173.206 168.869 C 174.312 168.975,174.800 168.865,174.800 168.511 C 174.800 167.113,171.830 168.021,169.900 170.009 M176.023 191.200 C 175.962 191.530,175.940 192.175,175.976 192.634 C 176.078 193.958,174.967 194.638,173.568 194.110 C 172.926 193.868,172.400 193.815,172.400 193.992 C 172.400 194.416,173.437 194.800,174.584 194.800 C 175.894 194.800,176.476 193.890,176.293 192.128 C 176.206 191.288,176.084 190.870,176.023 191.200 M181.301 192.700 C 181.564 195.514,182.905 198.830,183.605 198.397 C 183.911 198.208,184.287 198.130,184.439 198.224 C 184.591 198.318,184.823 198.117,184.954 197.777 C 185.089 197.423,185.022 197.263,184.795 197.403 C 184.252 197.738,184.296 197.064,184.853 196.507 C 185.553 195.807,184.983 194.827,184.022 195.078 C 182.727 195.417,182.000 194.508,182.000 192.551 C 182.000 191.548,181.813 190.800,181.561 190.800 C 181.280 190.800,181.186 191.480,181.301 192.700 M163.446 201.878 C 164.454 202.605,164.494 203.984,163.518 204.355 C 162.890 204.594,162.552 205.075,162.490 205.815 C 162.385 207.095,161.743 208.000,160.941 208.000 C 160.633 208.000,160.208 208.453,159.997 209.007 C 159.787 209.561,159.159 210.188,158.602 210.399 C 158.046 210.611,157.382 211.242,157.127 211.802 C 156.871 212.361,156.250 212.923,155.746 213.049 C 155.241 213.176,154.725 213.605,154.599 214.004 C 154.172 215.347,153.244 215.815,152.493 215.064 C 151.939 214.511,151.903 214.193,152.278 213.199 C 152.703 212.073,152.671 212.000,151.765 212.000 C 149.845 212.000,150.705 215.402,152.800 216.094 C 153.609 216.361,154.800 215.707,154.800 214.996 C 154.800 214.680,155.348 214.137,156.017 213.791 C 156.687 213.445,157.436 212.720,157.682 212.181 C 157.927 211.641,158.274 211.200,158.451 211.200 C 158.944 211.200,162.800 207.360,162.800 206.870 C 162.800 206.634,163.337 205.936,163.994 205.320 C 165.369 204.030,165.239 201.910,163.771 201.678 C 163.300 201.604,163.174 201.682,163.446 201.878 M245.374 203.700 C 245.526 204.855,245.744 206.436,245.859 207.212 C 246.042 208.457,245.961 208.633,245.174 208.692 C 243.980 208.782,243.500 209.325,243.500 210.587 C 243.500 211.908,243.922 212.352,244.452 211.588 C 244.759 211.147,244.911 211.124,245.063 211.496 C 245.279 212.028,246.400 211.208,246.400 210.518 C 246.400 209.846,247.708 208.327,247.951 208.715 C 248.104 208.959,248.399 208.897,248.716 208.556 C 249.080 208.163,249.095 208.000,248.767 208.000 C 248.427 208.000,248.435 207.840,248.796 207.405 C 249.502 206.554,249.027 205.615,248.022 205.878 C 246.727 206.217,246.000 205.308,246.000 203.351 C 246.000 202.319,245.815 201.600,245.549 201.600 C 245.237 201.600,245.183 202.246,245.374 203.700 M185.769 208.300 C 185.936 208.465,186.371 208.618,186.736 208.641 C 188.804 208.768,188.800 208.764,188.800 210.400 C 188.800 211.280,188.980 212.000,189.200 212.000 C 189.766 212.000,189.699 209.059,189.120 208.480 C 188.856 208.216,187.926 208.000,187.053 208.000 C 186.181 208.000,185.603 208.135,185.769 208.300 M170.634 223.729 C 170.042 225.720,170.871 226.800,172.991 226.800 C 174.283 226.800,174.800 226.638,174.800 226.235 C 174.800 225.776,174.580 225.753,173.632 226.110 C 172.099 226.689,171.291 226.035,171.108 224.070 C 170.971 222.601,170.970 222.601,170.634 223.729 M272.157 225.000 C 272.288 226.320,272.467 227.985,272.556 228.700 C 272.699 229.845,272.605 230.000,271.773 230.000 C 270.663 230.000,269.947 231.111,270.267 232.335 C 270.514 233.278,270.996 233.453,271.426 232.757 C 271.603 232.472,271.789 232.456,271.950 232.713 C 272.105 232.960,272.397 232.900,272.716 232.556 C 273.080 232.163,273.095 232.000,272.767 232.000 C 272.052 232.000,273.098 230.886,274.117 230.563 C 275.369 230.165,276.125 229.326,275.496 229.032 C 275.102 228.848,275.103 228.752,275.500 228.567 C 275.775 228.438,276.000 228.078,276.000 227.767 C 276.000 227.182,275.621 227.063,274.138 227.179 C 273.063 227.264,272.765 226.793,272.601 224.751 C 272.529 223.864,272.347 223.017,272.196 222.869 C 272.045 222.721,272.027 223.680,272.157 225.000 M148.269 224.565 C 148.096 225.016,148.291 225.061,149.237 224.789 C 150.830 224.333,152.629 224.980,152.629 226.009 C 152.629 226.444,152.493 226.800,152.327 226.800 C 152.161 226.800,152.129 227.071,152.257 227.403 C 152.552 228.173,154.396 228.045,155.200 227.198 C 156.369 225.966,156.127 225.292,154.411 225.002 C 153.527 224.853,152.703 224.566,152.578 224.365 C 152.200 223.753,148.515 223.924,148.269 224.565 M185.600 229.600 C 185.600 229.820,186.320 230.000,187.200 230.000 L 188.800 230.000 188.800 231.600 C 188.800 232.480,188.980 233.200,189.200 233.200 C 189.904 233.200,189.642 230.562,188.869 229.862 C 188.077 229.145,185.600 228.947,185.600 229.600 M172.000 234.043 C 172.000 234.983,172.146 235.230,172.600 235.055 C 172.970 234.913,173.200 235.056,173.200 235.428 C 173.200 235.924,173.299 235.940,173.756 235.516 C 174.062 235.232,174.252 234.685,174.179 234.300 C 174.106 233.915,174.261 233.582,174.523 233.560 C 175.039 233.517,173.321 232.905,172.500 232.840 C 172.199 232.816,172.000 233.294,172.000 234.043 M122.200 237.200 C 121.345 237.568,121.671 237.730,123.049 237.622 C 124.233 237.530,125.309 238.717,125.088 239.873 C 124.861 241.061,125.431 241.489,125.728 240.353 C 126.129 238.821,124.282 236.369,123.074 236.828 C 123.033 236.844,122.640 237.011,122.200 237.200 M128.200 240.609 L 127.000 241.147 128.400 241.074 C 129.778 241.001,129.799 241.023,129.712 242.500 C 129.623 244.021,130.113 244.524,130.557 243.367 C 131.358 241.279,130.069 239.770,128.200 240.609 M164.000 241.680 C 164.000 242.745,164.145 243.006,164.700 242.944 C 164.975 242.914,165.200 243.146,165.200 243.460 C 165.200 243.928,165.300 243.938,165.750 243.518 C 166.053 243.235,166.258 242.733,166.207 242.402 C 166.155 242.071,166.288 241.687,166.501 241.549 C 166.714 241.411,166.239 241.222,165.444 241.129 C 164.258 240.991,164.000 241.089,164.000 241.680 M127.020 242.368 C 126.724 242.847,127.953 244.076,128.432 243.780 C 128.635 243.655,128.800 243.443,128.800 243.310 C 128.800 243.176,128.682 243.185,128.537 243.330 C 128.175 243.692,127.156 242.795,127.428 242.355 C 127.549 242.160,127.557 242.000,127.447 242.000 C 127.337 242.000,127.145 242.165,127.020 242.368 M213.314 272.700 C 213.420 273.745,213.679 275.236,213.891 276.013 C 214.319 277.581,213.891 278.322,212.698 278.082 C 212.254 277.993,211.872 278.277,211.658 278.855 C 211.096 280.373,211.873 281.976,212.600 280.800 C 212.736 280.580,213.027 280.400,213.247 280.400 C 213.467 280.400,213.537 280.578,213.403 280.795 C 213.263 281.022,213.423 281.089,213.777 280.954 C 214.117 280.823,214.297 280.557,214.176 280.361 C 214.056 280.166,214.418 279.546,214.982 278.982 C 215.546 278.418,216.166 278.056,216.361 278.176 C 216.557 278.297,216.823 278.117,216.954 277.777 C 217.089 277.423,217.022 277.263,216.795 277.403 C 216.252 277.738,216.296 277.064,216.853 276.507 C 217.553 275.807,216.983 274.827,216.022 275.078 C 214.727 275.417,214.000 274.508,214.000 272.551 C 214.000 271.548,213.813 270.800,213.561 270.800 C 213.278 270.800,213.191 271.472,213.314 272.700 M185.600 277.600 C 185.600 277.820,186.320 278.000,187.200 278.000 L 188.800 278.000 188.800 279.600 C 188.800 280.480,188.980 281.200,189.200 281.200 C 189.904 281.200,189.642 278.562,188.869 277.862 C 188.077 277.145,185.600 276.947,185.600 277.600 M272.000 294.176 C 272.000 295.373,272.160 296.452,272.356 296.573 C 273.250 297.126,273.073 299.593,272.151 299.425 C 270.700 299.162,269.940 299.999,270.245 301.524 C 270.447 302.537,270.659 302.781,271.154 302.574 C 271.509 302.426,272.017 302.296,272.283 302.286 C 272.548 302.275,272.861 302.017,272.978 301.713 C 273.095 301.408,273.013 301.268,272.795 301.403 C 272.578 301.537,272.400 301.467,272.400 301.246 C 272.400 300.791,274.007 299.570,274.365 299.753 C 274.815 299.983,275.801 298.585,275.922 297.547 C 275.999 296.886,275.815 296.415,275.422 296.264 C 275.080 296.133,274.800 296.161,274.800 296.327 C 274.800 296.493,274.436 296.629,273.990 296.629 C 272.903 296.629,272.091 294.124,272.768 292.859 C 273.146 292.154,273.118 292.000,272.614 292.000 C 272.137 292.000,272.000 292.486,272.000 294.176 M186.200 298.784 C 185.557 299.047,185.715 299.140,187.000 299.256 C 188.593 299.399,188.600 299.407,188.600 301.101 C 188.600 302.195,188.778 302.801,189.100 302.801 C 190.032 302.800,189.715 299.726,188.711 299.023 C 187.729 298.335,187.378 298.301,186.200 298.784 M172.078 306.723 C 171.561 306.801,171.001 307.271,170.802 307.794 C 170.607 308.307,169.897 309.052,169.224 309.450 C 168.000 310.172,167.335 313.200,168.400 313.200 C 168.620 313.200,168.800 312.561,168.800 311.779 C 168.800 310.560,168.970 310.299,170.000 309.940 C 170.727 309.687,171.200 309.241,171.200 308.810 C 171.200 307.142,174.105 306.697,174.524 308.300 C 174.642 308.750,174.724 308.624,174.754 307.947 C 174.803 306.826,173.961 306.441,172.078 306.723 M310.823 339.977 C 310.347 340.278,310.332 340.532,310.735 341.418 L 311.225 342.493 312.013 341.585 C 312.965 340.487,312.994 340.160,312.167 339.843 C 311.400 339.548,311.520 339.536,310.823 339.977 M324.777 343.874 C 325.766 345.918,324.550 347.925,322.616 347.440 C 322.057 347.300,321.600 347.347,321.600 347.546 C 321.600 347.901,322.913 348.384,323.906 348.395 C 325.412 348.411,326.315 345.250,325.177 343.944 C 324.404 343.056,324.380 343.052,324.777 343.874 M90.200 344.004 C 89.555 344.278,89.681 344.349,90.851 344.372 C 92.476 344.403,93.394 345.214,93.096 346.354 C 92.987 346.770,93.053 347.356,93.243 347.656 C 93.611 348.237,93.773 347.425,93.613 345.800 C 93.465 344.296,91.700 343.367,90.200 344.004 M331.484 346.707 C 330.441 347.860,331.153 350.800,332.475 350.800 C 332.685 350.800,332.574 350.517,332.229 350.171 C 331.514 349.456,331.389 347.777,332.023 347.386 C 332.715 346.958,334.328 347.547,334.524 348.300 C 334.625 348.685,334.728 348.415,334.754 347.700 C 334.782 346.904,334.606 346.398,334.300 346.395 C 334.025 346.392,333.433 346.290,332.984 346.170 C 332.475 346.033,331.912 346.234,331.484 346.707 M96.000 347.406 L 95.000 347.985 96.400 347.892 C 97.891 347.794,98.394 349.615,97.116 350.484 C 96.768 350.720,96.926 350.796,97.600 350.717 C 98.743 350.583,99.064 349.221,98.311 347.700 C 97.795 346.659,97.383 346.607,96.000 347.406 M302.892 347.949 C 302.343 348.296,302.395 350.386,302.950 350.283 C 303.468 350.187,304.800 348.821,304.800 348.385 C 304.800 347.974,303.369 347.647,302.892 347.949 M321.742 352.400 C 321.798 353.741,321.737 353.805,320.300 353.924 C 318.389 354.082,318.331 354.800,320.229 354.800 C 322.353 354.800,323.091 353.899,322.301 352.270 L 321.685 351.000 321.742 352.400 M80.480 354.080 C 79.132 355.428,80.216 357.600,82.237 357.600 C 83.027 357.600,83.606 357.361,83.755 356.974 C 83.989 356.362,83.612 356.381,81.764 357.073 C 80.867 357.409,80.218 356.017,80.690 354.768 C 81.183 353.460,81.164 353.396,80.480 354.080 M329.734 355.111 C 328.609 355.287,328.331 356.082,328.861 357.602 C 329.517 359.484,331.749 358.657,331.916 356.470 C 332.011 355.220,331.412 354.847,329.734 355.111 M316.193 356.650 C 317.312 357.769,316.819 359.010,315.284 358.939 C 314.196 358.889,314.048 358.976,314.433 359.439 C 315.104 360.248,316.527 360.129,317.097 359.216 C 317.807 358.079,317.306 356.000,316.321 356.000 C 315.603 356.000,315.593 356.050,316.193 356.650 M90.000 360.320 C 90.000 362.655,92.613 363.871,94.011 362.187 C 94.458 361.648,94.385 361.625,93.407 361.997 C 91.347 362.780,90.525 361.999,90.779 359.500 C 90.818 359.115,90.659 358.800,90.425 358.800 C 90.191 358.800,90.000 359.484,90.000 360.320 M310.000 360.336 C 310.000 362.397,308.625 363.144,306.681 362.138 C 305.576 361.567,305.471 361.562,305.916 362.099 C 307.787 364.354,311.591 362.363,310.881 359.500 C 310.566 358.233,310.000 358.770,310.000 360.336 M79.600 365.601 L 78.600 366.384 79.910 365.901 C 81.657 365.256,82.530 365.833,82.843 367.841 L 83.086 369.400 83.143 367.989 C 83.254 365.234,81.542 364.080,79.600 365.601 M317.884 366.800 C 317.366 368.781,319.594 370.192,320.748 368.613 C 321.025 368.234,321.039 367.964,320.861 366.500 C 320.753 365.615,318.125 365.880,317.884 366.800 M87.400 368.639 C 86.639 369.223,86.658 369.239,87.800 368.975 C 88.460 368.822,89.090 368.699,89.200 368.701 C 90.693 368.731,90.800 368.845,90.800 370.400 C 90.800 371.556,90.967 372.000,91.400 372.000 C 92.283 372.000,92.184 369.491,91.269 368.662 C 90.358 367.838,88.459 367.827,87.400 368.639 M309.462 368.731 C 308.628 369.653,308.566 372.000,309.376 372.000 C 309.753 372.000,309.995 371.481,310.076 370.500 C 310.193 369.079,310.270 369.003,311.524 369.062 C 312.726 369.118,312.781 369.073,312.124 368.574 C 311.124 367.816,310.243 367.868,309.462 368.731 " stroke="none" fill="#fcecec" fill-rule="evenodd"></path><path id="path3" d="M258.885 48.088 C 258.836 49.826,259.421 50.410,261.149 50.347 L 262.600 50.295 261.200 50.047 C 259.924 49.822,259.789 49.668,259.676 48.300 C 259.524 46.466,258.936 46.308,258.885 48.088 M262.774 53.069 C 262.273 54.387,262.546 55.202,263.487 55.194 C 265.040 55.181,265.625 53.482,264.410 52.513 C 263.506 51.791,263.223 51.887,262.774 53.069 M76.885 61.881 C 76.824 62.614,77.010 62.800,77.804 62.800 C 78.599 62.800,78.800 62.599,78.800 61.804 C 78.800 60.429,76.999 60.500,76.885 61.881 M71.922 66.380 C 71.105 67.157,71.549 68.115,72.768 68.205 C 73.448 68.255,73.600 68.036,73.600 67.000 C 73.600 65.596,72.985 65.369,71.922 66.380 M328.290 69.729 C 327.750 71.099,328.661 72.006,330.514 71.943 L 332.200 71.886 330.602 71.643 C 329.215 71.432,328.977 71.242,328.791 70.200 C 328.617 69.221,328.525 69.134,328.290 69.729 M317.800 69.909 C 316.425 70.199,316.376 70.606,317.717 70.603 C 318.905 70.600,318.990 70.689,318.870 71.797 C 318.729 73.084,318.844 73.076,319.533 71.750 C 320.072 70.712,319.066 69.643,317.800 69.909 M255.331 72.563 C 255.769 73.705,254.878 74.908,253.755 74.694 C 252.422 74.439,252.149 75.050,253.450 75.377 C 255.258 75.831,257.033 73.086,255.532 72.158 C 255.213 71.961,255.149 72.091,255.331 72.563 M262.624 75.333 C 261.462 76.183,262.096 77.200,263.787 77.200 C 265.028 77.200,265.200 77.078,265.200 76.200 C 265.200 75.650,265.035 75.200,264.833 75.200 C 264.631 75.200,264.221 75.106,263.921 74.991 C 263.622 74.876,263.038 75.030,262.624 75.333 M136.413 76.318 C 136.406 76.602,136.170 76.782,135.888 76.718 C 135.322 76.588,135.200 76.815,135.200 78.000 C 135.200 78.622,135.467 78.800,136.400 78.800 C 137.291 78.800,137.600 78.614,137.600 78.076 C 137.600 77.243,136.432 75.513,136.413 76.318 M333.200 76.517 C 333.530 76.803,334.047 77.298,334.349 77.618 C 334.819 78.116,334.835 78.077,334.460 77.347 C 334.219 76.878,333.702 76.383,333.311 76.246 C 332.692 76.030,332.678 76.065,333.200 76.517 M331.448 77.663 C 330.964 79.292,331.791 80.539,333.132 80.203 C 334.887 79.762,334.802 78.758,333.038 79.095 C 332.174 79.260,332.039 79.122,331.910 77.941 C 331.765 76.610,331.761 76.608,331.448 77.663 M249.819 79.495 C 249.139 81.267,249.553 82.052,251.100 81.924 C 252.638 81.797,252.694 81.685,252.253 79.619 C 252.091 78.858,250.102 78.757,249.819 79.495 M306.885 80.088 C 306.836 81.826,307.421 82.410,309.149 82.347 L 310.600 82.295 309.200 82.047 C 307.924 81.822,307.789 81.668,307.676 80.300 C 307.524 78.466,306.936 78.308,306.885 80.088 M321.600 80.376 C 321.600 80.583,322.275 80.808,323.100 80.876 C 324.498 80.992,324.593 81.082,324.504 82.200 C 324.413 83.326,324.431 83.343,324.802 82.470 C 325.414 81.028,324.659 80.000,322.986 80.000 C 322.224 80.000,321.600 80.169,321.600 80.376 M150.187 82.200 C 150.084 82.530,149.918 83.065,149.817 83.388 C 149.538 84.285,150.740 85.271,151.742 84.969 C 153.245 84.516,153.250 84.155,151.750 84.330 L 150.301 84.499 150.470 83.050 C 150.645 81.549,150.514 81.155,150.187 82.200 M245.600 84.437 C 245.600 84.637,245.465 84.755,245.300 84.700 C 245.135 84.645,244.970 84.760,244.934 84.955 C 244.898 85.151,244.660 85.440,244.405 85.597 C 243.702 86.032,245.118 87.269,246.150 87.121 C 247.374 86.947,247.600 84.598,246.421 84.290 C 245.970 84.172,245.600 84.238,245.600 84.437 M310.774 85.069 C 310.273 86.387,310.546 87.202,311.487 87.194 C 313.040 87.181,313.625 85.482,312.410 84.513 C 311.506 83.791,311.223 83.887,310.774 85.069 M160.000 88.357 C 160.000 89.934,160.475 90.430,161.933 90.375 C 162.405 90.357,162.337 90.244,161.700 89.988 C 161.005 89.708,160.800 89.304,160.800 88.213 C 160.800 87.436,160.620 86.800,160.400 86.800 C 160.180 86.800,160.000 87.501,160.000 88.357 M163.002 87.602 C 163.402 88.044,163.811 88.322,163.912 88.221 C 164.128 88.005,162.988 86.800,162.567 86.800 C 162.407 86.800,162.603 87.161,163.002 87.602 M239.924 88.300 C 239.810 89.676,239.684 89.817,238.400 90.010 C 237.095 90.206,237.067 90.239,237.991 90.496 C 239.528 90.925,240.800 89.881,240.800 88.191 C 240.800 86.321,240.081 86.411,239.924 88.300 M149.300 94.012 C 148.043 94.518,148.167 94.869,149.434 94.387 C 150.812 93.863,151.200 94.178,151.200 95.824 C 151.200 96.581,151.380 97.200,151.600 97.200 C 152.371 97.200,152.049 94.454,151.226 94.014 C 150.341 93.540,150.475 93.540,149.300 94.012 M158.044 96.373 C 157.707 96.581,157.961 96.772,158.797 96.939 C 159.798 97.140,160.043 97.378,159.985 98.096 C 159.872 99.480,159.968 100.000,160.335 100.000 C 160.520 100.000,160.694 99.372,160.723 98.604 C 160.780 97.097,159.115 95.711,158.044 96.373 M240.651 96.876 C 239.996 97.242,239.832 100.000,240.465 100.000 C 240.829 100.000,240.927 99.483,240.819 98.127 C 240.763 97.414,240.993 97.231,242.075 97.125 C 243.348 97.000,243.358 96.986,242.338 96.760 C 241.754 96.631,240.995 96.683,240.651 96.876 M243.002 99.198 C 242.603 99.639,242.407 100.000,242.567 100.000 C 242.988 100.000,244.128 98.795,243.912 98.579 C 243.811 98.478,243.402 98.756,243.002 99.198 M208.584 128.587 C 208.668 129.571,208.848 130.555,208.984 130.775 C 209.359 131.381,212.000 131.171,212.000 130.535 C 212.000 129.977,211.606 129.862,210.100 129.984 C 209.302 130.049,209.200 129.873,209.200 128.429 C 209.200 127.533,209.027 126.800,208.816 126.800 C 208.605 126.800,208.500 127.604,208.584 128.587 M211.002 127.602 C 211.402 128.044,211.811 128.322,211.912 128.221 C 212.128 128.005,210.988 126.800,210.567 126.800 C 210.407 126.800,210.603 127.161,211.002 127.602 M186.800 134.353 C 188.019 134.568,188.232 134.781,188.447 136.000 L 188.695 137.400 188.747 135.700 L 188.800 134.000 187.100 134.053 L 185.400 134.105 186.800 134.353 M185.741 135.770 C 185.839 136.737,186.063 136.961,187.030 137.059 C 188.106 137.168,188.127 137.147,187.291 136.798 C 186.790 136.589,186.211 136.010,186.002 135.509 C 185.653 134.673,185.632 134.694,185.741 135.770 M273.818 148.371 C 273.717 148.534,273.852 148.675,274.118 148.686 C 274.383 148.696,274.945 148.847,275.366 149.020 C 275.866 149.227,276.041 149.191,275.872 148.916 C 275.539 148.377,274.057 147.984,273.818 148.371 M272.670 149.106 C 272.187 150.442,273.014 152.629,274.003 152.629 C 274.441 152.629,274.800 152.493,274.800 152.327 C 274.800 152.161,275.070 152.129,275.400 152.255 C 275.780 152.401,276.000 152.250,276.000 151.843 C 276.000 151.183,275.650 151.060,274.126 151.181 C 273.387 151.240,273.232 151.014,273.124 149.725 C 273.014 148.402,272.954 148.320,272.670 149.106 M185.600 155.576 C 185.600 155.809,186.230 156.000,187.000 156.000 C 188.103 156.000,188.400 156.159,188.400 156.751 C 188.400 157.860,187.251 158.725,186.776 157.974 C 186.548 157.614,186.410 157.577,186.406 157.876 C 186.397 158.600,187.170 158.923,187.754 158.438 C 188.040 158.201,188.406 158.139,188.567 158.300 C 188.728 158.461,188.801 157.875,188.730 156.997 C 188.604 155.453,185.600 154.089,185.600 155.576 M171.206 169.783 C 170.991 170.350,170.350 170.991,169.783 171.206 C 168.587 171.661,168.437 174.450,169.600 174.612 C 170.864 174.789,172.099 174.023,171.883 173.196 C 171.649 172.300,172.254 171.763,173.303 171.936 C 174.030 172.055,174.770 170.733,174.612 169.600 C 174.450 168.437,171.661 168.587,171.206 169.783 M175.124 192.300 C 175.009 193.690,174.912 193.795,173.800 193.733 C 172.638 193.669,172.629 193.681,173.534 194.110 C 174.892 194.754,175.787 194.041,175.860 192.257 C 175.939 190.332,175.284 190.370,175.124 192.300 M182.000 192.484 C 182.000 194.536,182.576 195.243,184.141 195.113 C 185.643 194.989,185.457 194.076,183.900 193.925 C 182.734 193.813,182.596 193.665,182.560 192.493 C 182.498 190.455,182.000 190.447,182.000 192.484 M183.300 191.074 C 183.685 191.176,184.000 191.436,184.000 191.653 C 184.000 191.870,184.180 191.936,184.400 191.800 C 184.620 191.664,184.800 191.773,184.800 192.043 C 184.800 192.313,184.894 192.439,185.009 192.324 C 185.505 191.828,184.692 190.970,183.690 190.931 C 183.091 190.908,182.915 190.972,183.300 191.074 M161.948 201.923 C 161.919 202.075,161.874 203.278,161.848 204.595 C 161.801 206.927,161.769 206.995,160.603 207.198 C 159.653 207.364,159.365 207.653,159.201 208.603 C 159.042 209.533,158.761 209.827,157.944 209.922 C 157.163 210.013,156.835 210.325,156.674 211.132 C 156.513 211.936,156.111 212.320,155.128 212.609 C 154.207 212.880,153.761 213.276,153.672 213.900 C 153.602 214.395,153.356 214.800,153.126 214.800 C 152.893 214.800,152.793 214.350,152.900 213.790 C 153.160 212.429,152.493 212.092,152.160 213.417 C 151.602 215.639,153.904 216.192,154.599 214.004 C 154.725 213.605,155.241 213.176,155.746 213.049 C 156.250 212.923,156.871 212.361,157.127 211.802 C 157.382 211.242,158.046 210.611,158.602 210.399 C 159.159 210.188,159.787 209.561,159.997 209.007 C 160.208 208.453,160.633 208.000,160.941 208.000 C 161.743 208.000,162.385 207.095,162.490 205.815 C 162.552 205.075,162.890 204.594,163.518 204.355 C 164.347 204.040,164.492 202.892,163.804 202.087 C 163.570 201.813,161.995 201.674,161.948 201.923 M246.053 203.251 C 245.993 205.345,246.543 206.045,248.141 205.913 C 249.756 205.779,249.559 204.485,247.900 204.325 C 246.762 204.216,246.569 204.025,246.353 202.800 C 246.116 201.461,246.103 201.480,246.053 203.251 M247.509 202.002 C 248.010 202.211,248.589 202.790,248.798 203.291 C 249.147 204.127,249.168 204.106,249.059 203.030 C 248.961 202.063,248.737 201.839,247.770 201.741 C 246.694 201.632,246.673 201.653,247.509 202.002 M185.600 208.881 C 185.600 209.057,186.251 209.200,187.047 209.200 C 188.364 209.200,188.477 209.287,188.307 210.174 C 188.205 210.710,188.271 211.385,188.454 211.674 C 188.663 212.003,188.790 211.563,188.794 210.500 C 188.798 209.430,188.615 208.781,188.300 208.748 C 186.485 208.561,185.600 208.605,185.600 208.881 M185.638 210.600 C 185.592 211.318,186.181 211.799,187.200 211.874 C 187.778 211.917,187.905 211.862,187.500 211.745 C 187.115 211.633,186.800 211.364,186.800 211.147 C 186.800 210.930,186.635 210.855,186.434 210.979 C 186.233 211.103,185.977 210.979,185.866 210.702 C 185.754 210.426,185.652 210.380,185.638 210.600 M171.200 224.151 C 171.200 225.873,172.025 226.597,173.495 226.163 L 174.600 225.836 173.300 225.693 C 172.113 225.562,172.000 225.429,172.000 224.175 C 172.000 223.419,171.820 222.800,171.600 222.800 C 171.380 222.800,171.200 223.408,171.200 224.151 M173.780 223.434 C 173.953 223.855,174.104 224.417,174.114 224.682 C 174.125 224.948,174.266 225.083,174.429 224.982 C 174.816 224.743,174.423 223.261,173.884 222.928 C 173.609 222.759,173.573 222.934,173.780 223.434 M272.584 224.587 C 272.668 225.571,272.848 226.555,272.984 226.775 C 273.359 227.381,276.000 227.171,276.000 226.535 C 276.000 225.977,275.606 225.862,274.100 225.984 C 273.302 226.049,273.200 225.873,273.200 224.429 C 273.200 223.533,273.027 222.800,272.816 222.800 C 272.605 222.800,272.500 223.604,272.584 224.587 M275.002 223.602 C 275.402 224.044,275.811 224.322,275.912 224.221 C 276.128 224.005,274.988 222.800,274.567 222.800 C 274.407 222.800,274.603 223.161,275.002 223.602 M149.200 224.800 C 148.314 225.084,148.375 225.125,149.729 225.160 C 151.058 225.195,151.248 225.317,151.184 226.100 C 151.059 227.650,151.180 228.000,151.843 228.000 C 152.250 228.000,152.401 227.780,152.255 227.400 C 152.129 227.070,152.161 226.800,152.327 226.800 C 153.219 226.800,152.508 225.176,151.455 224.809 C 150.809 224.584,150.262 224.418,150.240 224.440 C 150.218 224.462,149.750 224.624,149.200 224.800 M148.271 225.900 C 148.033 226.304,148.757 228.176,149.041 227.892 C 149.164 227.769,149.077 227.317,148.846 226.887 C 148.616 226.457,148.542 225.992,148.681 225.853 C 148.820 225.714,148.824 225.600,148.690 225.600 C 148.557 225.600,148.368 225.735,148.271 225.900 M186.800 230.353 C 188.019 230.568,188.232 230.781,188.447 232.000 L 188.695 233.400 188.747 231.700 L 188.800 230.000 187.100 230.053 L 185.400 230.105 186.800 230.353 M185.741 231.770 C 185.839 232.737,186.063 232.961,187.030 233.059 C 188.106 233.168,188.127 233.147,187.291 232.798 C 186.790 232.589,186.211 232.010,186.002 231.509 C 185.653 230.673,185.632 230.694,185.741 231.770 M121.600 238.085 C 121.600 238.258,122.230 238.400,123.000 238.400 C 124.333 238.400,124.400 238.467,124.400 239.800 C 124.400 241.489,124.993 241.681,125.119 240.032 C 125.168 239.390,124.921 238.579,124.571 238.229 C 123.939 237.596,121.600 237.483,121.600 238.085 M127.700 241.108 C 127.205 241.189,126.800 241.524,126.800 241.851 C 126.800 242.222,126.989 242.333,127.300 242.147 C 127.619 241.955,127.595 242.099,127.232 242.546 C 126.742 243.150,126.742 243.228,127.232 243.123 C 127.551 243.054,127.746 243.249,127.677 243.568 C 127.572 244.058,127.650 244.058,128.254 243.568 C 128.701 243.205,128.845 243.181,128.653 243.500 C 128.467 243.810,128.578 244.000,128.945 244.000 C 129.280 244.000,129.653 243.468,129.806 242.771 C 130.174 241.097,129.760 240.770,127.700 241.108 M214.000 272.484 C 214.000 274.536,214.576 275.243,216.141 275.113 C 217.643 274.989,217.457 274.076,215.900 273.925 C 214.734 273.813,214.596 273.665,214.560 272.493 C 214.498 270.455,214.000 270.447,214.000 272.484 M215.300 271.074 C 215.685 271.176,216.000 271.436,216.000 271.653 C 216.000 271.870,216.180 271.936,216.400 271.800 C 216.620 271.664,216.800 271.773,216.800 272.043 C 216.800 272.313,216.894 272.439,217.009 272.324 C 217.505 271.828,216.692 270.970,215.690 270.931 C 215.091 270.908,214.915 270.972,215.300 271.074 M186.800 278.353 C 188.019 278.568,188.232 278.781,188.447 280.000 L 188.695 281.400 188.747 279.700 L 188.800 278.000 187.100 278.053 L 185.400 278.105 186.800 278.353 M185.741 279.770 C 185.839 280.737,186.063 280.961,187.030 281.059 C 188.106 281.168,188.127 281.147,187.291 280.798 C 186.790 280.589,186.211 280.010,186.002 279.509 C 185.653 278.673,185.632 278.694,185.741 279.770 M273.818 292.371 C 273.717 292.534,273.852 292.675,274.118 292.686 C 274.383 292.696,274.945 292.847,275.366 293.020 C 275.866 293.227,276.041 293.191,275.872 292.916 C 275.539 292.377,274.057 291.984,273.818 292.371 M272.670 293.106 C 272.187 294.442,273.014 296.629,274.003 296.629 C 274.441 296.629,274.800 296.493,274.800 296.327 C 274.800 296.161,275.070 296.129,275.400 296.255 C 275.780 296.401,276.000 296.250,276.000 295.843 C 276.000 295.183,275.650 295.060,274.126 295.181 C 273.387 295.240,273.232 295.014,273.124 293.725 C 273.014 292.402,272.954 292.320,272.670 293.106 M185.600 299.576 C 185.600 299.809,186.230 300.000,187.000 300.000 C 188.103 300.000,188.400 300.159,188.400 300.751 C 188.400 301.860,187.251 302.725,186.776 301.974 C 186.548 301.614,186.410 301.577,186.406 301.876 C 186.397 302.600,187.170 302.923,187.754 302.438 C 188.040 302.201,188.406 302.139,188.567 302.300 C 188.728 302.461,188.801 301.875,188.730 300.997 C 188.604 299.453,185.600 298.089,185.600 299.576 M171.680 307.680 C 171.416 307.944,171.200 308.466,171.200 308.841 C 171.200 309.238,170.700 309.696,170.000 309.940 C 168.260 310.547,168.179 313.203,169.900 313.194 C 171.022 313.188,172.096 312.715,172.034 312.255 C 171.858 310.941,172.062 310.338,172.609 310.548 C 173.463 310.876,174.848 309.398,174.520 308.509 C 174.035 307.195,172.587 306.773,171.680 307.680 M173.200 308.151 C 173.200 308.234,172.930 308.526,172.600 308.800 C 172.109 309.208,172.000 309.180,172.000 308.649 C 172.000 308.292,172.270 308.000,172.600 308.000 C 172.930 308.000,173.200 308.068,173.200 308.151 M170.705 311.625 C 170.838 312.117,170.804 312.118,170.467 311.635 C 170.154 311.186,170.035 311.269,169.891 312.035 C 169.724 312.919,169.704 312.905,169.654 311.867 C 169.598 310.699,170.405 310.514,170.705 311.625 M324.635 344.622 C 324.908 346.048,324.362 346.655,322.600 346.887 L 321.400 347.045 322.516 347.370 C 324.462 347.936,325.941 345.749,324.794 344.000 C 324.511 343.567,324.466 343.741,324.635 344.622 M90.800 344.753 C 92.076 344.978,92.211 345.132,92.324 346.500 C 92.476 348.334,93.064 348.492,93.115 346.712 C 93.164 344.974,92.579 344.390,90.851 344.453 L 89.400 344.505 90.800 344.753 M331.867 347.467 C 331.370 347.963,331.596 349.539,332.258 350.201 C 332.731 350.674,332.997 350.728,333.203 350.395 C 333.360 350.140,333.649 349.929,333.845 349.926 C 334.040 349.923,334.155 349.758,334.100 349.560 C 334.045 349.362,334.174 349.200,334.387 349.200 C 334.855 349.200,334.433 347.919,333.829 347.506 C 333.290 347.137,332.218 347.115,331.867 347.467 M95.794 347.966 C 94.965 348.207,94.629 349.968,95.400 350.034 C 95.620 350.053,95.986 350.222,96.213 350.411 C 96.862 350.950,97.623 350.242,97.716 349.014 C 97.805 347.829,97.270 347.537,95.794 347.966 M319.700 351.300 C 319.755 351.575,319.575 351.755,319.300 351.700 C 318.989 351.638,318.800 352.053,318.800 352.800 C 318.800 353.901,318.914 354.000,320.176 354.000 C 321.813 354.000,322.148 353.585,321.798 351.990 C 321.534 350.788,319.461 350.106,319.700 351.300 M80.556 355.034 C 80.212 356.403,81.067 357.268,82.402 356.903 C 83.396 356.632,83.395 356.630,82.200 356.401 C 81.191 356.208,81.012 355.999,81.075 355.086 C 81.171 353.712,80.895 353.684,80.556 355.034 M314.400 356.513 C 313.330 357.382,313.570 358.730,314.844 359.010 C 316.763 359.431,317.555 358.012,316.171 356.629 C 315.426 355.883,315.194 355.868,314.400 356.513 M90.760 359.400 C 90.620 361.551,91.096 362.412,92.400 362.367 C 92.756 362.354,92.620 362.163,92.068 361.897 C 91.398 361.575,91.184 361.196,91.307 360.550 C 91.402 360.056,91.329 359.415,91.146 359.126 C 90.901 358.739,90.798 358.812,90.760 359.400 M309.124 360.298 C 309.015 361.611,308.852 361.823,307.800 362.009 C 306.852 362.177,306.748 362.280,307.305 362.500 C 308.710 363.055,310.000 362.019,310.000 360.336 C 310.000 358.360,309.287 358.329,309.124 360.298 M79.376 366.222 C 78.626 366.823,78.630 366.830,79.474 366.422 C 81.310 365.535,82.000 365.857,82.000 367.600 C 82.000 368.480,82.180 369.200,82.400 369.200 C 82.964 369.200,82.899 366.659,82.320 366.080 C 81.655 365.415,80.303 365.480,79.376 366.222 M88.400 368.833 C 87.481 369.097,87.508 369.124,88.729 369.160 C 89.851 369.194,90.046 369.340,89.984 370.100 C 89.868 371.530,89.971 372.000,90.400 372.000 C 90.620 372.000,90.800 371.301,90.800 370.447 C 90.800 368.735,90.184 368.320,88.400 368.833 M310.267 369.067 C 309.307 370.026,310.027 372.000,311.300 371.901 C 312.758 371.788,313.185 371.392,313.194 370.147 C 313.201 369.121,311.018 368.316,310.267 369.067 M86.800 370.567 C 86.800 370.988,88.005 372.128,88.221 371.912 C 88.322 371.811,88.044 371.402,87.602 371.002 C 87.161 370.603,86.800 370.407,86.800 370.567 " stroke="none" fill="#fce4e4" fill-rule="evenodd"></path><path id="path4" d="M181.062 31.531 C 179.963 32.746,180.217 33.863,181.657 34.151 C 183.273 34.475,183.920 33.912,183.920 32.184 C 183.920 30.564,182.277 30.189,181.062 31.531 M175.462 37.131 C 174.223 38.501,174.590 39.920,176.184 39.920 C 177.912 39.920,178.475 39.273,178.151 37.657 C 177.857 36.186,176.549 35.930,175.462 37.131 M224.607 42.900 C 223.836 44.710,224.549 45.382,227.100 45.247 C 227.727 45.214,228.000 44.950,228.000 44.376 C 228.000 43.824,227.835 43.652,227.500 43.853 C 227.118 44.083,227.121 44.004,227.514 43.519 C 227.938 42.996,227.915 42.772,227.385 42.242 C 226.333 41.191,225.224 41.453,224.607 42.900 M214.800 42.649 C 214.800 43.064,215.185 43.176,216.215 43.063 C 217.274 42.946,217.726 43.088,218.015 43.627 C 218.844 45.177,216.810 47.450,215.640 46.280 C 214.927 45.567,214.625 46.343,215.317 47.109 C 216.197 48.081,217.716 48.147,218.284 47.237 C 219.243 45.701,219.331 43.731,218.477 42.877 C 217.519 41.919,214.800 41.751,214.800 42.649 M172.656 44.774 C 171.803 46.701,174.084 48.887,175.486 47.486 C 176.541 46.430,175.638 44.606,174.045 44.574 C 173.336 44.560,172.711 44.650,172.656 44.774 M258.060 48.438 C 258.017 49.766,258.203 50.460,258.731 50.938 C 259.549 51.678,262.400 51.847,262.400 51.157 C 262.400 50.896,262.027 50.807,261.494 50.941 C 259.832 51.358,258.626 50.377,258.360 48.391 L 258.120 46.600 258.060 48.438 M261.675 52.816 C 259.865 54.502,261.051 56.800,263.731 56.800 C 265.636 56.800,265.643 56.086,263.741 55.924 C 261.815 55.760,261.290 54.903,262.110 53.261 C 262.851 51.774,262.823 51.746,261.675 52.816 M135.475 55.658 C 134.486 56.738,134.757 57.642,136.254 58.253 C 138.085 59.000,138.988 57.995,138.187 56.100 C 137.560 54.613,136.579 54.453,135.475 55.658 M79.857 61.332 C 80.086 63.411,78.783 64.434,77.121 63.481 C 76.124 62.908,75.793 62.874,75.290 63.291 C 74.953 63.571,74.570 63.770,74.439 63.733 C 74.307 63.697,74.110 63.771,74.000 63.897 C 73.890 64.024,74.025 63.999,74.300 63.841 C 75.034 63.418,74.910 64.031,74.149 64.588 C 73.581 65.003,73.565 65.246,74.020 66.505 C 74.722 68.445,74.031 69.375,72.119 69.064 C 71.140 68.905,70.800 68.998,70.800 69.425 C 70.800 71.500,74.946 69.681,75.370 67.420 C 75.519 66.627,75.875 66.000,76.175 66.000 C 76.472 66.000,76.818 65.730,76.945 65.400 C 77.071 65.070,77.549 64.800,78.006 64.800 C 79.939 64.800,81.608 61.569,80.255 60.445 C 79.809 60.076,79.737 60.238,79.857 61.332 M327.680 68.480 C 326.241 69.919,327.393 72.823,329.380 72.764 L 330.600 72.728 329.325 72.359 C 327.766 71.908,327.347 70.789,328.141 69.197 C 328.754 67.969,328.533 67.627,327.680 68.480 M316.243 69.433 C 315.858 70.434,315.943 70.485,316.889 69.823 C 318.584 68.635,320.103 69.256,320.237 71.191 C 320.296 72.052,320.086 72.589,319.562 72.917 C 318.386 73.651,319.555 76.000,321.095 76.000 C 322.121 76.000,322.542 73.191,321.641 72.353 C 321.179 71.922,320.800 71.162,320.800 70.664 C 320.800 68.878,316.864 67.814,316.243 69.433 M80.552 70.053 C 79.883 70.793,79.880 70.906,80.506 71.920 C 81.561 73.628,84.148 73.097,83.787 71.246 C 83.718 70.891,83.647 70.483,83.631 70.339 C 83.533 69.510,81.237 69.296,80.552 70.053 M83.143 71.469 C 82.798 71.885,82.593 71.913,82.384 71.574 C 82.176 71.237,82.044 71.259,81.903 71.655 C 81.797 71.955,81.577 72.077,81.415 71.927 C 80.905 71.454,81.544 70.900,82.600 70.900 C 83.432 70.900,83.530 71.002,83.143 71.469 M255.836 71.798 C 257.268 73.985,255.780 76.545,253.249 76.250 C 252.166 76.124,252.075 76.192,252.429 76.854 C 253.068 78.049,254.986 77.823,255.973 76.438 C 256.919 75.110,257.058 72.573,256.243 71.500 C 255.428 70.426,255.096 70.669,255.836 71.798 M261.665 73.731 C 260.476 74.996,260.521 77.423,261.760 78.938 L 262.691 80.077 264.046 79.338 L 265.400 78.600 263.898 78.476 C 260.629 78.205,260.546 74.000,263.809 74.000 C 265.622 74.000,265.670 73.033,263.864 72.905 C 262.906 72.837,262.285 73.071,261.665 73.731 M330.800 76.800 C 329.854 77.746,329.763 79.582,330.585 81.171 C 331.443 82.830,333.665 83.449,334.157 82.167 C 334.516 81.232,334.490 81.200,333.374 81.200 C 330.858 81.200,329.731 79.102,331.187 77.132 C 332.159 75.818,331.956 75.644,330.800 76.800 M138.133 77.629 C 138.805 79.408,137.707 80.424,136.189 79.430 C 135.104 78.719,134.627 78.714,135.122 79.420 C 136.526 81.420,139.530 80.412,139.024 78.110 C 138.874 77.426,138.513 76.775,138.222 76.664 C 137.797 76.501,137.780 76.692,138.133 77.629 M321.601 78.900 C 321.600 79.065,322.217 79.200,322.971 79.200 C 325.456 79.200,326.482 81.433,324.862 83.317 C 324.303 83.967,324.306 84.011,324.894 83.785 C 326.410 83.203,326.520 79.959,325.056 79.000 C 324.164 78.415,321.602 78.341,321.601 78.900 M252.414 79.038 C 252.422 79.237,252.678 79.850,252.983 80.400 C 253.728 81.742,252.827 82.800,250.938 82.800 C 249.228 82.800,249.185 83.371,250.885 83.491 C 253.596 83.682,255.064 81.087,253.200 79.400 C 252.760 79.002,252.406 78.839,252.414 79.038 M306.060 80.438 C 306.017 81.766,306.203 82.460,306.731 82.938 C 307.549 83.678,310.400 83.847,310.400 83.157 C 310.400 82.896,310.027 82.807,309.494 82.941 C 307.832 83.358,306.626 82.377,306.360 80.391 L 306.120 78.600 306.060 80.438 M148.852 82.471 C 148.224 84.169,148.889 85.721,150.412 86.110 C 151.175 86.305,152.230 86.856,152.755 87.333 C 153.424 87.940,153.763 88.050,153.888 87.700 C 153.986 87.425,154.277 87.197,154.533 87.194 C 155.798 87.177,156.156 86.497,155.459 85.434 C 154.700 84.275,153.422 84.075,152.887 85.030 C 151.816 86.944,148.683 84.906,149.474 82.810 C 149.740 82.105,149.773 81.600,149.552 81.600 C 149.344 81.600,149.029 81.992,148.852 82.471 M309.675 84.816 C 307.865 86.502,309.051 88.800,311.731 88.800 C 313.636 88.800,313.643 88.086,311.741 87.924 C 309.815 87.760,309.290 86.903,310.110 85.261 C 310.851 83.774,310.823 83.746,309.675 84.816 M247.925 85.851 C 247.773 87.642,246.782 88.431,245.607 87.697 C 244.577 87.054,244.375 87.070,244.646 87.776 C 245.426 89.809,248.800 88.498,248.800 86.162 C 248.800 84.323,248.076 84.066,247.925 85.851 M158.080 88.111 C 158.080 91.000,160.990 92.529,163.200 90.800 C 164.383 89.875,164.124 89.775,162.596 90.568 C 160.735 91.534,159.200 90.476,159.200 88.229 C 159.200 87.271,159.015 86.800,158.640 86.800 C 158.274 86.800,158.080 87.254,158.080 88.111 M241.688 88.027 C 241.752 90.256,239.412 91.559,237.000 90.640 C 236.212 90.339,236.211 90.344,236.976 90.967 C 239.042 92.650,242.800 90.997,242.800 88.406 C 242.800 87.278,242.629 86.800,242.227 86.800 C 241.846 86.800,241.665 87.212,241.688 88.027 M149.237 92.754 C 148.707 92.899,148.226 93.345,148.167 93.744 C 148.073 94.385,148.138 94.403,148.730 93.895 C 150.606 92.288,152.271 93.086,152.507 95.707 L 152.660 97.400 152.730 95.549 C 152.821 93.147,151.538 92.120,149.237 92.754 M248.417 93.869 C 247.512 95.019,247.511 95.026,247.852 96.300 C 248.221 97.676,248.737 97.373,248.876 95.700 C 249.005 94.138,249.294 93.991,251.100 94.567 C 252.509 95.016,252.154 94.221,250.617 93.489 C 249.255 92.839,249.223 92.845,248.417 93.869 M156.875 96.016 C 156.394 96.464,156.000 96.942,156.000 97.078 C 156.000 97.213,156.362 96.996,156.805 96.595 C 158.654 94.922,161.759 96.306,161.688 98.773 C 161.665 99.588,161.846 100.000,162.227 100.000 C 162.629 100.000,162.800 99.522,162.800 98.394 C 162.800 95.676,158.914 94.116,156.875 96.016 M240.075 95.622 C 238.131 96.401,236.919 100.000,238.600 100.000 C 239.014 100.000,239.200 99.585,239.200 98.662 C 239.200 96.623,242.079 94.910,243.000 96.400 C 243.136 96.620,243.462 96.796,243.724 96.791 C 243.986 96.786,243.750 96.430,243.200 96.000 C 242.101 95.140,241.467 95.063,240.075 95.622 M207.343 129.573 C 207.598 132.317,207.588 132.354,206.400 133.200 C 205.000 134.197,204.585 137.200,205.847 137.200 C 206.312 137.200,206.430 136.958,206.267 136.335 C 205.947 135.111,206.663 134.000,207.773 134.000 C 208.605 134.000,208.699 133.845,208.556 132.700 C 208.467 131.985,208.289 130.365,208.160 129.100 C 208.031 127.835,207.737 126.800,207.506 126.800 C 207.227 126.800,207.172 127.738,207.343 129.573 M186.858 133.089 C 188.632 133.277,189.483 134.147,189.705 136.000 C 189.854 137.250,189.879 137.204,189.936 135.580 C 190.016 133.293,189.505 132.783,187.220 132.867 C 185.541 132.929,185.513 132.946,186.858 133.089 M271.500 148.629 C 271.072 149.063,271.129 151.361,271.598 152.594 C 271.953 153.527,271.865 153.713,270.787 154.320 C 269.120 155.258,268.570 157.857,269.942 158.314 C 270.355 158.452,270.421 158.204,270.217 157.275 C 269.917 155.911,270.713 155.190,272.242 155.440 C 273.141 155.587,273.198 154.417,272.379 152.600 C 272.181 152.160,271.970 151.018,271.910 150.062 C 271.849 149.107,271.665 148.462,271.500 148.629 M185.600 154.443 C 185.600 154.721,185.989 154.789,186.642 154.625 C 188.222 154.229,189.518 155.272,189.708 157.093 C 189.854 158.493,189.870 158.466,189.933 156.714 C 189.986 155.216,189.841 154.743,189.226 154.414 C 188.196 153.863,185.600 153.884,185.600 154.443 M162.229 162.229 C 161.401 163.056,161.720 164.128,162.977 164.743 C 164.599 165.536,165.536 164.599,164.743 162.977 C 164.128 161.720,163.056 161.401,162.229 162.229 M171.312 167.608 C 170.824 167.805,170.318 168.388,170.188 168.904 C 170.052 169.449,169.470 170.024,168.803 170.276 C 167.513 170.764,166.697 173.257,167.550 174.110 C 167.883 174.443,168.000 174.223,168.000 173.261 C 168.000 171.430,171.393 168.000,173.205 168.000 C 173.931 168.000,174.345 167.834,174.200 167.600 C 173.901 167.116,172.525 167.120,171.312 167.608 M176.470 192.220 C 176.363 194.696,174.235 195.777,172.629 194.171 C 172.283 193.826,172.000 193.708,172.000 193.909 C 172.000 194.599,173.462 195.600,174.470 195.600 C 176.044 195.600,176.877 194.380,176.695 192.341 L 176.540 190.600 176.470 192.220 M180.818 191.600 C 180.546 194.452,181.332 197.940,182.394 198.596 C 183.003 198.973,182.884 197.891,182.125 196.149 C 181.754 195.297,181.330 193.700,181.182 192.600 C 181.034 191.500,180.870 191.050,180.818 191.600 M164.814 202.798 C 165.167 204.075,165.096 204.295,164.000 205.319 C 163.340 205.936,162.800 206.634,162.800 206.870 C 162.800 207.360,158.944 211.200,158.451 211.200 C 158.274 211.200,157.927 211.641,157.682 212.181 C 157.436 212.720,156.687 213.445,156.017 213.791 C 155.348 214.137,154.800 214.680,154.800 214.996 C 154.800 215.931,153.482 216.416,152.414 215.874 C 151.212 215.265,150.897 214.640,150.589 212.253 C 150.371 210.571,150.178 210.247,149.168 209.866 C 148.526 209.623,148.000 209.225,148.000 208.982 C 148.000 208.179,146.168 206.800,145.101 206.800 C 144.181 206.800,144.056 206.958,144.078 208.100 C 144.104 209.490,144.975 210.800,145.872 210.800 C 146.173 210.800,146.592 211.252,146.802 211.805 C 147.012 212.358,147.634 213.015,148.184 213.266 C 148.734 213.516,149.294 214.067,149.428 214.488 C 150.162 216.801,154.002 217.474,155.201 215.500 C 155.635 214.785,156.391 214.103,156.881 213.985 C 157.370 213.867,157.867 213.366,157.985 212.872 C 158.103 212.377,158.646 211.750,159.192 211.478 C 159.738 211.207,160.394 210.564,160.650 210.050 C 160.906 209.536,161.536 208.906,162.050 208.650 C 162.564 208.394,163.182 207.788,163.423 207.304 C 163.664 206.820,164.343 206.045,164.931 205.583 C 166.201 204.584,166.284 203.630,165.214 202.344 L 164.427 201.400 164.814 202.798 M244.853 204.267 C 244.805 206.883,244.707 207.201,243.732 207.911 C 242.493 208.814,241.902 212.000,242.974 212.000 C 243.353 212.000,243.535 211.588,243.512 210.781 C 243.471 209.359,243.930 208.786,245.182 208.691 C 246.156 208.618,246.157 208.451,245.226 203.200 C 244.922 201.483,244.904 201.533,244.853 204.267 M185.600 207.600 C 185.600 207.820,186.284 208.000,187.120 208.000 C 189.051 208.000,189.600 208.564,189.600 210.547 C 189.600 211.419,189.711 212.022,189.847 211.886 C 190.416 211.317,190.034 208.313,189.325 207.775 C 188.488 207.141,185.600 207.005,185.600 207.600 M137.741 215.126 C 137.967 216.807,138.156 216.971,140.100 217.169 C 140.265 217.186,140.400 217.532,140.400 217.938 C 140.400 218.741,141.580 220.000,142.331 220.000 C 142.589 220.000,142.800 220.242,142.800 220.538 C 142.800 221.262,144.103 222.400,144.931 222.400 C 145.299 222.400,145.614 222.535,145.631 222.700 C 145.713 223.505,145.958 224.492,146.116 224.649 C 146.612 225.146,148.064 225.099,148.263 224.581 C 148.516 223.920,151.984 223.752,152.620 224.369 C 152.829 224.572,153.720 224.860,154.600 225.009 C 157.097 225.433,155.235 224.271,152.191 223.505 C 150.011 222.957,146.652 221.145,146.565 220.470 C 146.459 219.639,145.850 218.854,145.174 218.677 C 144.751 218.567,144.279 218.144,144.127 217.738 C 143.810 216.894,142.738 215.991,142.344 216.235 C 142.198 216.325,141.707 215.769,141.252 214.999 C 140.041 212.946,137.462 213.040,137.741 215.126 M170.000 224.577 C 170.000 226.947,173.143 228.910,174.200 227.200 C 174.349 226.959,173.809 226.800,172.838 226.800 C 170.962 226.800,170.176 225.821,170.550 223.951 C 170.677 223.313,170.606 222.800,170.390 222.800 C 170.175 222.800,170.000 223.600,170.000 224.577 M271.343 225.573 C 271.598 228.317,271.588 228.354,270.400 229.200 C 269.000 230.197,268.585 233.200,269.847 233.200 C 270.312 233.200,270.430 232.958,270.267 232.335 C 269.947 231.111,270.663 230.000,271.773 230.000 C 272.605 230.000,272.699 229.845,272.556 228.700 C 272.467 227.985,272.289 226.365,272.160 225.100 C 272.031 223.835,271.737 222.800,271.506 222.800 C 271.227 222.800,271.172 223.738,271.343 225.573 M186.858 229.089 C 188.632 229.277,189.483 230.147,189.705 232.000 C 189.854 233.250,189.879 233.204,189.936 231.580 C 190.016 229.293,189.505 228.783,187.220 228.867 C 185.541 228.929,185.513 228.946,186.858 229.089 M162.935 231.199 C 161.117 231.933,161.293 233.720,163.230 234.197 C 164.800 234.585,165.428 233.601,164.615 232.029 C 164.265 231.353,163.939 230.811,163.890 230.825 C 163.840 230.839,163.411 231.008,162.935 231.199 M170.808 232.785 C 170.458 233.438,170.514 233.869,171.068 234.808 C 171.798 236.044,173.200 236.442,173.200 235.413 C 173.200 235.055,172.965 234.915,172.600 235.055 C 172.144 235.230,172.000 234.980,172.000 234.011 C 172.000 232.792,172.055 232.748,173.247 233.010 C 174.202 233.220,174.453 233.157,174.316 232.742 C 174.004 231.792,171.322 231.825,170.808 232.785 M122.200 236.776 C 121.589 237.027,121.756 237.097,122.906 237.073 C 124.866 237.031,125.769 237.936,125.724 239.894 C 125.696 241.151,125.747 241.250,126.034 240.495 C 126.376 239.594,126.122 237.315,125.648 237.039 C 124.968 236.642,122.907 236.486,122.200 236.776 M168.800 239.600 C 168.800 241.246,169.755 241.903,170.255 240.600 C 170.382 240.270,170.657 240.000,170.866 240.000 C 171.076 240.000,171.119 240.208,170.962 240.462 C 170.784 240.750,170.852 240.815,171.145 240.634 C 171.402 240.475,171.517 240.190,171.400 240.000 C 171.283 239.810,171.370 239.542,171.593 239.404 C 172.617 238.772,171.961 238.000,170.400 238.000 L 168.800 238.000 168.800 239.600 M127.544 240.398 L 126.600 241.196 128.051 240.613 C 129.921 239.862,131.058 240.810,130.662 242.789 C 130.525 243.475,130.589 244.000,130.810 244.000 C 131.490 244.000,131.413 240.955,130.712 240.100 C 130.101 239.355,128.613 239.495,127.544 240.398 M162.818 240.767 C 162.053 242.196,162.740 244.000,164.050 244.000 C 164.765 244.000,165.200 243.790,165.200 243.444 C 165.200 243.139,164.975 242.914,164.700 242.944 C 164.143 243.006,164.000 242.745,164.000 241.669 C 164.000 241.074,164.238 240.974,165.287 241.127 C 166.481 241.303,166.526 241.269,165.915 240.658 C 165.017 239.759,163.325 239.819,162.818 240.767 M212.822 271.600 C 212.772 272.150,212.760 273.545,212.795 274.700 C 212.830 275.855,212.699 276.800,212.504 276.800 C 211.527 276.800,210.407 278.485,210.501 279.814 C 210.619 281.472,211.561 281.699,211.514 280.058 C 211.473 278.602,211.896 277.920,212.737 278.089 C 213.889 278.322,214.313 277.563,213.898 276.013 C 213.689 275.236,213.382 273.700,213.216 272.600 C 213.044 271.469,212.873 271.035,212.822 271.600 M186.858 277.089 C 188.632 277.277,189.483 278.147,189.705 280.000 C 189.854 281.250,189.879 281.204,189.936 279.580 C 190.016 277.293,189.505 276.783,187.220 276.867 C 185.541 276.929,185.513 276.946,186.858 277.089 M271.500 292.629 C 271.072 293.063,271.129 295.361,271.598 296.594 C 271.953 297.527,271.865 297.713,270.787 298.320 C 269.120 299.258,268.570 301.857,269.942 302.314 C 270.355 302.452,270.421 302.204,270.217 301.275 C 269.917 299.911,270.713 299.190,272.242 299.440 C 273.141 299.587,273.198 298.417,272.379 296.600 C 272.181 296.160,271.970 295.018,271.910 294.062 C 271.849 293.107,271.665 292.462,271.500 292.629 M185.600 298.443 C 185.600 298.721,185.989 298.789,186.642 298.625 C 188.222 298.229,189.518 299.272,189.708 301.093 C 189.854 302.493,189.870 302.466,189.933 300.714 C 189.986 299.216,189.841 298.743,189.226 298.414 C 188.196 297.863,185.600 297.884,185.600 298.443 M162.014 301.174 C 161.373 302.371,161.504 302.730,162.829 303.415 C 164.401 304.228,165.387 303.599,164.994 302.034 C 164.558 300.297,162.761 299.778,162.014 301.174 M170.723 306.700 C 170.392 307.085,170.010 307.715,169.873 308.100 C 169.737 308.485,169.354 308.800,169.022 308.800 C 168.119 308.800,167.207 310.459,167.309 311.915 C 167.436 313.712,168.000 313.525,168.000 311.686 C 168.000 310.422,168.202 310.053,169.224 309.450 C 169.897 309.052,170.613 308.293,170.814 307.763 C 171.164 306.843,171.890 306.595,173.700 306.779 C 174.085 306.818,174.400 306.659,174.400 306.425 C 174.400 305.703,171.386 305.928,170.723 306.700 M301.519 337.872 C 300.621 338.108,300.208 339.487,300.816 340.219 C 301.358 340.873,303.425 341.007,303.793 340.412 C 304.064 339.972,302.935 337.575,302.490 337.646 C 302.330 337.672,301.893 337.773,301.519 337.872 M309.944 339.170 L 309.000 339.939 309.757 341.358 C 310.173 342.139,310.669 342.681,310.858 342.564 C 311.047 342.447,311.022 342.014,310.801 341.602 C 310.248 340.568,310.298 340.125,311.000 339.855 C 311.694 339.589,312.800 339.933,312.800 340.414 C 312.800 340.595,312.530 341.013,312.200 341.343 C 311.453 342.090,311.439 342.400,312.153 342.400 C 313.423 342.400,313.556 338.989,312.300 338.652 C 311.023 338.310,310.990 338.317,309.944 339.170 M325.243 343.972 L 326.183 345.244 325.378 346.722 C 324.654 348.053,324.426 348.191,323.087 348.112 C 321.899 348.042,321.600 348.166,321.600 348.730 C 321.600 349.860,324.038 349.844,325.074 348.707 C 326.634 346.996,326.498 343.426,324.851 342.882 C 324.531 342.776,324.694 343.230,325.243 343.972 M89.600 343.560 C 89.600 343.759,90.214 343.903,90.965 343.882 C 92.527 343.838,93.600 344.557,93.600 345.649 C 93.600 346.062,93.800 346.400,94.043 346.400 C 94.679 346.400,94.107 344.315,93.302 343.700 C 92.553 343.128,89.600 343.017,89.600 343.560 M307.425 345.159 C 307.037 345.788,307.679 348.000,308.250 348.000 C 308.553 348.000,308.800 347.790,308.800 347.533 C 308.800 347.277,308.918 347.185,309.063 347.330 C 309.373 347.640,310.400 346.870,310.400 346.327 C 310.400 346.121,310.175 346.088,309.900 346.253 C 309.501 346.493,309.500 346.429,309.897 345.940 C 310.170 345.603,310.275 345.208,310.130 345.063 C 309.739 344.672,307.681 344.745,307.425 345.159 M330.963 346.201 C 329.854 347.310,329.817 349.392,330.894 350.058 C 331.571 350.477,331.844 350.084,331.273 349.513 C 329.920 348.160,331.485 345.755,333.405 346.237 C 334.246 346.448,334.461 346.382,334.321 345.956 C 333.984 344.931,332.095 345.068,330.963 346.201 M96.123 346.478 C 95.641 346.711,95.154 347.142,95.042 347.435 C 94.887 347.840,95.172 347.809,96.220 347.310 C 97.921 346.499,98.859 347.343,98.643 349.489 C 98.571 350.198,98.667 350.682,98.856 350.565 C 99.509 350.162,99.229 347.350,98.469 346.662 C 97.636 345.908,97.348 345.886,96.123 346.478 M302.026 347.067 C 300.944 347.825,300.914 349.819,301.976 350.387 C 302.530 350.683,302.833 350.670,303.038 350.339 C 303.203 350.072,303.149 349.984,302.912 350.131 C 302.668 350.282,302.499 349.940,302.497 349.293 C 302.495 348.038,302.965 347.613,304.044 347.896 C 304.956 348.134,305.000 348.543,304.200 349.343 C 303.449 350.094,303.440 350.400,304.168 350.400 C 304.912 350.400,305.410 348.135,304.822 347.427 C 304.124 346.586,302.932 346.432,302.026 347.067 M322.219 352.070 C 323.094 353.906,322.443 354.800,320.229 354.800 C 319.443 354.800,318.800 354.962,318.800 355.160 C 318.800 355.944,321.715 355.521,322.632 354.604 C 323.673 353.563,323.568 352.457,322.319 351.327 C 321.522 350.605,321.521 350.608,322.219 352.070 M79.680 354.080 C 78.405 355.355,79.439 357.858,81.391 358.225 C 82.150 358.367,82.980 358.735,83.235 359.042 C 84.253 360.269,86.490 359.504,86.205 358.027 C 85.931 356.603,84.172 355.885,83.737 357.019 C 83.129 358.605,80.000 357.417,80.000 355.600 C 80.000 355.028,80.216 354.344,80.480 354.080 C 80.747 353.813,80.782 353.600,80.560 353.600 C 80.340 353.600,79.944 353.816,79.680 354.080 M328.471 354.820 C 327.952 355.304,327.645 355.941,327.773 356.274 C 327.898 356.599,328.000 357.101,328.000 357.390 C 328.000 357.678,328.262 358.015,328.583 358.138 C 329.052 358.318,329.093 358.171,328.794 357.384 C 328.116 355.602,328.877 354.933,331.300 355.179 C 331.685 355.218,332.000 355.059,332.000 354.825 C 332.000 354.591,331.775 354.398,331.500 354.395 C 331.225 354.392,330.639 354.292,330.198 354.174 C 329.699 354.039,329.047 354.283,328.471 354.820 M317.363 357.395 C 317.897 359.521,315.907 360.748,314.273 359.300 C 313.652 358.750,313.524 358.729,313.674 359.200 C 314.049 360.383,315.814 361.035,316.969 360.417 C 318.061 359.832,318.563 356.400,317.557 356.400 C 317.284 356.400,317.209 356.783,317.363 357.395 M88.880 360.185 C 88.880 363.026,91.961 364.614,93.925 362.784 C 94.406 362.336,94.800 361.858,94.800 361.722 C 94.800 361.587,94.471 361.774,94.069 362.138 C 92.285 363.752,90.000 362.730,90.000 360.320 C 90.000 359.284,89.822 358.800,89.440 358.800 C 89.068 358.800,88.880 359.264,88.880 360.185 M310.880 360.211 C 310.880 362.633,308.991 363.753,306.771 362.646 C 305.448 361.985,305.320 362.062,306.229 362.971 C 308.237 364.980,312.694 362.768,312.147 360.033 C 311.802 358.311,310.880 358.441,310.880 360.211 M79.500 364.832 C 79.115 365.056,78.800 365.432,78.800 365.666 C 78.800 365.908,79.226 365.813,79.786 365.446 C 81.688 364.200,82.767 364.918,83.228 367.735 L 83.500 369.400 83.550 367.523 C 83.620 364.904,81.637 363.587,79.500 364.832 M317.462 365.531 C 316.595 366.490,316.560 369.200,317.415 369.200 C 317.809 369.200,318.002 368.877,317.953 368.300 C 317.779 366.277,317.949 366.000,319.367 366.000 C 320.118 366.000,320.824 366.225,320.935 366.500 C 321.081 366.862,321.146 366.868,321.168 366.523 C 321.261 365.126,318.498 364.387,317.462 365.531 M87.600 368.000 C 87.050 368.430,86.814 368.786,87.076 368.791 C 87.338 368.796,87.664 368.620,87.800 368.400 C 88.783 366.809,92.000 368.594,92.000 370.731 C 92.000 372.235,93.012 372.496,93.286 371.064 C 93.836 368.183,90.005 366.119,87.600 368.000 M309.558 367.746 C 308.366 368.340,307.660 369.734,307.904 371.011 C 308.181 372.459,308.800 372.218,308.800 370.662 C 308.800 368.388,310.392 367.452,312.221 368.650 C 313.097 369.225,313.186 369.228,312.975 368.678 C 312.605 367.715,310.676 367.189,309.558 367.746 " stroke="none" fill="#fcf4f4" fill-rule="evenodd"></path></g></svg>