<svg id="svg" version="1.1" xmlns="http://www.w3.org/2000/svg" xmlns:xlink="http://www.w3.org/1999/xlink" width="400" height="400" viewBox="0, 0, 400,400"><g id="svgg"><path id="path0" d="M242.527 42.443 C 243.103 44.646,241.788 45.668,239.746 44.602 C 239.088 44.259,237.535 44.004,236.100 44.002 L 233.600 44.000 233.600 45.400 C 233.600 46.636,233.480 46.800,232.575 46.800 C 231.659 46.800,231.563 46.939,231.675 48.100 C 231.767 49.063,231.567 49.589,230.900 50.129 C 230.405 50.530,230.000 51.084,230.000 51.359 C 230.000 52.297,228.182 53.600,226.874 53.600 C 226.008 53.600,225.600 53.792,225.600 54.200 C 225.600 54.619,225.178 54.800,224.200 54.800 C 222.867 54.800,222.800 54.867,222.800 56.200 C 222.800 57.533,222.733 57.600,221.400 57.600 C 219.720 57.600,219.496 58.752,220.768 60.843 C 222.042 62.938,221.120 64.228,218.500 64.016 C 217.833 63.962,217.600 64.157,217.600 64.771 C 217.600 65.452,217.349 65.600,216.200 65.600 C 214.918 65.600,214.800 65.699,214.800 66.775 C 214.800 67.808,214.643 67.964,213.500 68.075 C 211.925 68.226,211.606 69.362,212.568 71.390 C 213.682 73.736,212.739 75.128,210.443 74.527 C 209.782 74.354,209.600 74.489,209.600 75.153 C 209.600 75.854,209.359 76.000,208.200 76.000 C 206.867 76.000,206.800 76.067,206.800 77.400 C 206.800 78.733,206.733 78.800,205.400 78.800 C 204.008 78.800,203.210 81.064,204.352 81.770 C 205.849 82.695,204.891 84.972,203.027 84.920 C 201.776 84.884,201.600 84.998,201.600 85.840 C 201.600 86.671,201.411 86.800,200.200 86.800 C 198.867 86.800,198.800 86.867,198.800 88.200 C 198.800 89.533,198.733 89.600,197.400 89.600 C 196.111 89.600,196.000 89.695,196.000 90.800 L 196.000 92.000 119.400 92.000 L 42.800 92.000 42.800 93.571 C 42.800 96.010,40.585 97.188,39.480 95.336 C 38.694 94.019,36.000 94.688,36.000 96.200 C 36.000 97.489,35.905 97.600,34.800 97.600 C 33.733 97.600,33.600 97.733,33.600 98.800 C 33.600 99.905,33.489 100.000,32.200 100.000 L 30.800 100.000 30.800 103.975 L 30.800 107.949 29.500 108.075 L 28.200 108.200 28.099 217.145 L 27.999 326.089 29.299 325.851 C 31.329 325.480,31.842 326.016,31.273 327.915 C 31.013 328.783,30.800 331.135,30.800 333.143 L 30.800 336.793 32.100 336.643 C 33.910 336.435,34.418 336.944,33.966 338.518 C 33.171 341.289,33.466 342.800,34.800 342.800 C 35.806 342.800,36.000 342.958,36.000 343.777 C 36.000 344.640,36.198 344.768,37.700 344.877 C 38.798 344.956,39.365 345.177,39.300 345.500 C 39.245 345.775,39.380 346.000,39.600 346.000 C 39.820 346.000,39.955 346.225,39.900 346.500 C 39.845 346.775,40.025 346.955,40.300 346.900 C 40.575 346.845,40.800 346.980,40.800 347.200 C 40.800 347.420,41.025 347.555,41.300 347.500 C 41.623 347.435,41.844 348.002,41.923 349.100 C 42.032 350.602,42.160 350.800,43.023 350.800 C 43.842 350.800,44.000 350.994,44.000 352.000 C 44.000 353.334,45.511 353.629,48.282 352.834 C 49.856 352.382,50.365 352.890,50.157 354.700 L 50.007 356.000 53.657 356.000 C 55.665 356.000,58.017 355.787,58.885 355.527 C 60.784 354.958,61.320 355.471,60.949 357.500 L 60.711 358.800 200.005 358.800 L 339.300 358.800 339.047 357.535 C 338.673 355.666,339.660 354.670,341.128 355.436 C 341.833 355.804,343.545 355.996,346.131 355.998 L 350.061 356.000 349.939 354.500 L 349.817 353.000 352.909 353.127 L 356.000 353.254 356.000 352.027 C 356.000 350.985,356.151 350.800,357.000 350.800 C 357.879 350.800,358.000 350.628,358.000 349.380 C 358.000 348.130,358.171 347.888,359.422 347.365 C 360.526 346.904,360.791 346.602,360.606 346.019 C 360.300 345.056,361.040 344.606,362.694 344.749 C 363.852 344.849,364.000 344.747,364.000 343.856 C 364.000 343.014,364.211 342.830,365.300 342.725 C 366.891 342.572,367.210 341.208,366.229 338.756 C 365.523 336.993,366.400 336.161,368.410 336.687 L 369.306 336.921 369.153 331.360 L 369.000 325.800 370.500 325.888 L 372.000 325.976 372.000 193.400 L 372.000 60.824 370.500 60.912 L 369.000 61.000 369.149 56.500 L 369.297 52.000 368.049 52.000 C 366.983 52.000,366.800 51.853,366.800 51.000 C 366.800 50.127,366.625 50.000,365.424 50.000 C 363.862 50.000,363.468 49.575,363.514 47.942 C 363.543 46.938,363.405 46.800,362.373 46.800 C 361.299 46.800,361.200 46.682,361.200 45.400 L 361.200 44.000 358.649 44.000 C 357.246 44.000,355.473 44.261,354.709 44.580 C 353.015 45.288,352.400 44.846,352.400 42.920 L 352.400 41.600 297.353 41.600 L 242.307 41.600 242.527 42.443 M228.000 47.800 C 228.000 48.350,228.069 48.800,228.153 48.800 C 228.238 48.800,228.393 48.350,228.498 47.800 C 228.603 47.250,228.534 46.800,228.345 46.800 C 228.155 46.800,228.000 47.250,228.000 47.800 M365.600 47.200 C 365.600 47.420,365.767 47.600,365.971 47.600 C 366.175 47.600,366.424 47.915,366.524 48.300 C 366.637 48.731,366.725 48.577,366.754 47.900 C 366.784 47.168,366.599 46.800,366.200 46.800 C 365.870 46.800,365.600 46.980,365.600 47.200 M356.771 56.946 C 357.192 57.732,357.169 58.099,356.638 59.126 C 356.069 60.227,356.000 63.945,356.000 93.580 L 356.000 126.800 304.623 126.800 L 253.246 126.800 253.123 128.500 C 252.994 130.280,251.385 131.145,250.271 130.031 C 250.034 129.794,249.156 129.600,248.320 129.600 L 246.800 129.600 246.800 134.800 L 246.800 140.000 248.400 140.000 C 249.280 140.000,250.000 139.823,250.000 139.608 C 250.000 138.966,251.954 138.664,252.605 139.204 C 252.944 139.486,253.200 140.364,253.200 141.249 L 253.200 142.800 304.600 142.800 L 356.000 142.800 356.000 237.400 L 356.000 332.000 354.800 332.000 C 353.373 332.000,353.107 333.887,354.229 336.056 C 354.919 337.390,354.377 338.500,352.790 339.003 C 352.403 339.126,351.994 339.580,351.881 340.011 C 351.580 341.164,350.435 341.435,349.100 340.669 C 346.998 339.462,345.600 339.754,345.600 341.400 L 345.600 342.800 218.851 342.800 L 92.102 342.800 91.829 340.700 C 91.270 336.392,91.202 336.614,93.136 336.475 L 94.871 336.351 94.667 332.275 C 94.554 330.034,94.403 327.750,94.331 327.200 C 94.210 326.275,94.313 326.207,95.700 326.288 L 97.200 326.376 97.200 235.768 C 97.200 154.188,97.137 145.039,96.572 143.945 C 95.592 142.051,97.141 141.023,99.200 142.200 C 100.052 142.687,107.681 142.774,150.735 142.786 L 201.270 142.800 201.015 141.291 L 200.761 139.782 203.780 139.935 L 206.800 140.087 206.800 134.800 L 206.800 129.513 203.815 129.663 L 200.831 129.814 201.020 128.307 L 201.209 126.800 151.017 126.800 L 100.824 126.800 100.912 128.300 L 101.000 129.800 96.500 129.651 L 92.000 129.503 92.000 130.751 C 92.000 131.817,91.853 132.000,91.000 132.000 C 90.127 132.000,90.000 132.175,90.000 133.376 C 90.000 134.938,89.575 135.332,87.942 135.286 C 86.938 135.257,86.800 135.395,86.800 136.427 C 86.800 137.501,86.682 137.600,85.400 137.600 L 84.000 137.600 84.000 140.151 C 84.000 141.554,84.261 143.327,84.580 144.091 C 85.288 145.785,84.846 146.400,82.920 146.400 L 81.600 146.400 81.600 239.200 L 81.600 332.000 80.200 332.000 C 78.615 332.000,78.170 334.134,79.413 335.776 C 80.263 336.901,80.136 337.792,79.042 338.378 C 78.515 338.660,77.699 339.410,77.230 340.045 C 76.284 341.325,75.348 341.499,74.176 340.613 C 72.575 339.401,70.800 339.815,70.800 341.400 L 70.800 342.800 62.825 342.800 L 54.851 342.800 54.725 341.500 C 54.572 339.913,53.435 339.607,51.355 340.595 C 49.632 341.412,48.755 341.264,48.152 340.054 C 47.895 339.538,47.262 338.905,46.746 338.648 C 45.536 338.045,45.388 337.168,46.205 335.445 C 47.193 333.365,46.887 332.228,45.300 332.075 L 44.000 331.949 44.000 219.975 L 44.000 108.000 45.400 108.000 C 46.733 108.000,46.800 107.933,46.800 106.600 L 46.800 105.200 124.760 105.200 L 202.720 105.200 202.720 103.724 C 202.720 101.972,203.563 101.200,205.476 101.200 C 206.386 101.200,206.800 101.012,206.800 100.600 C 206.800 100.200,207.200 100.000,208.000 100.000 C 209.105 100.000,209.200 99.889,209.200 98.600 C 209.200 97.258,209.260 97.200,210.646 97.200 L 212.091 97.200 211.883 94.371 L 211.674 91.542 213.237 91.806 L 214.800 92.070 214.800 90.635 C 214.800 89.307,214.890 89.200,216.000 89.200 C 217.067 89.200,217.200 89.067,217.200 88.000 C 217.200 86.895,217.311 86.800,218.600 86.800 C 219.933 86.800,220.000 86.733,220.000 85.400 C 220.000 84.630,220.202 84.000,220.449 84.000 C 220.756 84.000,220.738 83.808,220.392 83.391 C 219.970 82.882,219.994 82.823,220.543 83.034 C 220.905 83.172,221.200 83.446,221.200 83.643 C 221.200 83.839,221.560 84.000,222.000 84.000 C 222.718 84.000,222.800 83.733,222.800 81.400 L 222.800 78.800 224.000 78.800 C 225.105 78.800,225.200 78.689,225.200 77.400 C 225.200 76.067,225.267 76.000,226.600 76.000 C 227.933 76.000,228.000 75.933,228.000 74.600 C 228.000 73.181,228.183 73.045,229.900 73.184 C 230.749 73.253,230.800 73.110,230.800 70.629 L 230.800 68.000 232.000 68.000 C 233.105 68.000,233.200 67.889,233.200 66.600 C 233.200 65.267,233.267 65.200,234.600 65.200 C 235.882 65.200,236.000 65.101,236.000 64.025 C 236.000 62.992,236.157 62.836,237.300 62.725 C 238.695 62.591,239.452 60.650,238.370 59.981 C 236.606 58.891,238.078 56.070,240.051 56.758 C 242.174 57.498,353.497 57.345,354.800 56.600 C 356.129 55.840,356.185 55.850,356.771 56.946 M221.719 82.213 C 222.114 82.756,222.289 83.200,222.108 83.200 C 221.574 83.200,220.000 81.988,220.000 81.577 C 220.000 80.859,221.003 81.230,221.719 82.213 M214.396 92.700 C 214.343 92.975,214.278 93.408,214.250 93.662 C 214.222 93.916,213.869 94.172,213.463 94.232 C 212.261 94.408,212.180 94.800,213.346 94.800 C 214.494 94.800,214.987 94.107,214.680 92.923 C 214.577 92.526,214.449 92.425,214.396 92.700 M202.892 127.275 C 203.139 128.017,204.000 128.140,204.000 127.433 C 204.000 127.085,203.715 126.800,203.367 126.800 C 203.018 126.800,202.805 127.014,202.892 127.275 M229.600 127.200 C 229.600 127.420,229.767 127.600,229.972 127.600 C 230.177 127.600,230.422 128.005,230.518 128.500 C 230.643 129.151,230.706 129.040,230.746 128.100 C 230.784 127.187,230.621 126.800,230.200 126.800 C 229.870 126.800,229.600 126.980,229.600 127.200 M220.000 134.800 L 220.000 140.000 221.368 140.000 C 222.120 140.000,223.283 139.685,223.953 139.301 C 225.112 138.636,225.266 138.636,227.139 139.301 C 228.222 139.685,230.028 140.000,231.154 140.000 L 233.200 140.000 233.200 134.800 L 233.200 129.600 230.987 129.600 C 229.770 129.600,228.195 129.841,227.487 130.136 C 226.139 130.697,224.068 130.615,223.420 129.975 C 223.211 129.769,222.356 129.600,221.520 129.600 L 220.000 129.600 220.000 134.800 M86.800 132.600 C 86.800 132.930,86.980 133.200,87.200 133.200 C 87.420 133.200,87.600 133.033,87.600 132.829 C 87.600 132.625,87.915 132.376,88.300 132.276 C 88.731 132.163,88.577 132.075,87.900 132.046 C 87.168 132.016,86.800 132.201,86.800 132.600 M230.396 140.700 C 230.343 140.975,230.278 141.408,230.250 141.662 C 230.222 141.916,229.869 142.172,229.463 142.232 C 228.261 142.408,228.180 142.800,229.346 142.800 C 230.494 142.800,230.987 142.107,230.680 140.923 C 230.577 140.526,230.449 140.425,230.396 140.700 M203.200 141.972 C 203.200 142.177,202.795 142.422,202.300 142.518 C 201.649 142.643,201.760 142.706,202.700 142.746 C 203.613 142.784,204.000 142.621,204.000 142.200 C 204.000 141.870,203.820 141.600,203.600 141.600 C 203.380 141.600,203.200 141.767,203.200 141.972 M28.000 328.333 C 28.000 328.810,28.164 329.200,28.365 329.200 C 28.771 329.200,28.711 328.177,28.278 327.745 C 28.125 327.592,28.000 327.857,28.000 328.333 M94.302 339.000 C 94.197 339.550,94.266 340.000,94.455 340.000 C 94.645 340.000,94.800 339.550,94.800 339.000 C 94.800 338.450,94.731 338.000,94.647 338.000 C 94.562 338.000,94.407 338.450,94.302 339.000 M36.046 346.900 C 36.016 347.632,36.201 348.000,36.600 348.000 C 36.930 348.000,37.200 347.820,37.200 347.600 C 37.200 347.380,37.033 347.200,36.829 347.200 C 36.625 347.200,36.376 346.885,36.276 346.500 C 36.163 346.069,36.075 346.223,36.046 346.900 M363.067 347.067 C 362.606 347.527,362.775 348.000,363.400 348.000 C 363.730 348.000,364.000 347.730,364.000 347.400 C 364.000 346.775,363.527 346.606,363.067 347.067 M38.800 350.200 C 38.800 350.599,39.168 350.784,39.900 350.754 C 40.577 350.725,40.731 350.637,40.300 350.524 C 39.915 350.424,39.600 350.175,39.600 349.971 C 39.600 349.767,39.420 349.600,39.200 349.600 C 38.980 349.600,38.800 349.870,38.800 350.200 M360.800 350.024 C 360.800 350.257,360.656 350.358,360.481 350.250 C 360.305 350.142,359.900 350.218,359.581 350.420 C 359.145 350.696,359.275 350.789,360.100 350.794 C 360.814 350.798,361.200 350.589,361.200 350.200 C 361.200 349.870,361.110 349.600,361.000 349.600 C 360.890 349.600,360.800 349.791,360.800 350.024 M342.432 357.313 C 342.414 357.705,341.995 358.189,341.500 358.388 L 340.600 358.749 341.513 358.775 C 342.463 358.801,343.024 357.996,342.669 357.113 C 342.542 356.796,342.451 356.872,342.432 357.313 M57.600 358.435 C 57.600 358.636,57.990 358.800,58.467 358.800 C 58.943 358.800,59.208 358.675,59.055 358.522 C 58.623 358.089,57.600 358.029,57.600 358.435 " stroke="none" fill="#fcfcfc" fill-rule="evenodd"></path><path id="path1" d="M239.280 42.080 C 238.301 43.059,238.722 44.242,240.213 44.699 C 241.846 45.201,243.391 43.794,242.451 42.661 C 242.207 42.367,242.125 42.008,242.270 41.863 C 242.415 41.718,241.909 41.600,241.147 41.600 C 240.384 41.600,239.544 41.816,239.280 42.080 M352.469 43.007 C 352.359 44.640,352.995 45.069,354.687 44.503 C 356.674 43.839,356.034 41.844,353.782 41.685 C 352.654 41.606,352.556 41.705,352.469 43.007 M228.638 47.165 C 228.568 47.294,228.395 47.883,228.254 48.474 C 228.065 49.267,227.712 49.580,226.899 49.674 C 225.057 49.885,225.002 53.384,226.838 53.524 C 228.251 53.632,229.600 52.684,229.600 51.584 C 229.600 51.203,230.050 50.597,230.600 50.237 C 232.324 49.107,232.038 46.808,230.183 46.878 C 229.404 46.907,228.709 47.036,228.638 47.165 M363.674 48.270 C 363.794 49.733,363.868 49.806,365.350 49.927 C 366.853 50.050,366.892 50.021,366.630 48.979 C 366.003 46.480,363.477 45.875,363.674 48.270 M238.267 56.667 C 237.892 57.041,237.945 58.895,238.349 59.531 C 239.058 60.650,241.200 59.514,241.200 58.019 C 241.200 56.971,238.984 55.950,238.267 56.667 M354.500 56.812 C 352.887 57.461,353.447 60.000,355.204 60.000 C 356.098 60.000,356.410 59.748,356.761 58.741 C 357.447 56.772,356.536 55.994,354.500 56.812 M369.085 57.925 C 368.259 59.666,368.777 60.800,370.398 60.800 C 371.973 60.800,372.051 60.744,371.929 59.700 C 371.743 58.116,369.623 56.793,369.085 57.925 M218.300 60.432 C 217.820 60.711,217.600 61.337,217.600 62.420 C 217.600 64.468,220.549 64.939,221.043 62.971 C 221.587 60.803,220.071 59.400,218.300 60.432 M209.843 71.433 C 209.315 72.808,209.585 74.303,210.400 74.516 C 212.451 75.052,213.609 73.736,212.748 71.846 C 212.198 70.639,210.254 70.362,209.843 71.433 M202.062 82.187 C 201.033 83.643,201.524 84.800,203.171 84.800 C 204.683 84.800,204.800 84.721,204.794 83.700 C 204.783 81.826,203.011 80.844,202.062 82.187 M211.923 91.865 C 211.830 92.049,211.876 92.830,212.025 93.600 C 212.173 94.370,212.318 94.798,212.347 94.552 C 212.376 94.306,212.804 94.126,213.298 94.152 C 213.948 94.187,214.193 93.980,214.184 93.400 C 214.178 92.960,214.359 92.468,214.587 92.306 C 214.838 92.127,214.765 92.008,214.400 92.001 C 214.070 91.994,213.415 91.886,212.945 91.760 C 212.475 91.634,212.015 91.681,211.923 91.865 M39.500 92.432 C 38.093 93.251,38.910 95.421,40.888 96.122 C 41.933 96.492,42.800 95.335,42.800 93.571 C 42.800 91.888,41.315 91.375,39.500 92.432 M203.500 101.632 C 201.916 102.555,202.572 105.200,204.386 105.200 C 206.173 105.200,206.800 104.480,206.800 102.426 C 206.800 101.097,205.114 100.692,203.500 101.632 M98.121 127.408 C 97.126 128.474,97.730 129.755,99.300 129.908 L 100.800 130.054 100.800 128.421 C 100.800 126.720,99.296 126.151,98.121 127.408 M201.139 127.586 C 200.986 129.130,201.024 129.606,201.302 129.603 C 201.466 129.601,202.120 129.600,202.756 129.600 C 203.599 129.600,203.896 129.416,203.856 128.919 C 203.731 127.391,201.278 126.187,201.139 127.586 M223.280 127.280 C 221.425 129.135,224.023 131.076,227.115 130.145 C 228.112 129.845,229.332 129.600,229.826 129.600 C 230.561 129.600,230.682 129.436,230.490 128.700 C 230.160 127.434,229.339 126.648,229.032 127.304 C 228.848 127.698,228.752 127.697,228.567 127.300 C 228.262 126.648,223.929 126.631,223.280 127.280 M249.764 127.799 C 249.417 129.186,249.790 129.932,250.982 130.231 C 252.648 130.649,253.200 130.197,253.200 128.413 L 253.200 126.800 251.608 126.800 C 250.243 126.800,249.979 126.943,249.764 127.799 M88.407 132.296 C 86.327 133.112,86.221 135.295,88.270 135.126 C 89.723 135.006,89.806 134.924,89.924 133.500 C 90.050 131.981,89.771 131.760,88.407 132.296 M223.689 139.423 C 222.588 140.194,222.524 141.824,223.574 142.386 C 224.511 142.887,228.400 142.941,228.400 142.452 C 228.400 142.261,228.804 142.126,229.298 142.152 C 229.948 142.187,230.193 141.980,230.184 141.400 C 230.178 140.960,230.359 140.468,230.587 140.306 C 230.814 140.144,230.527 140.009,229.949 140.006 C 229.371 140.003,228.251 139.730,227.462 139.400 C 225.640 138.639,224.801 138.644,223.689 139.423 M250.262 139.531 C 248.836 141.107,249.826 142.800,252.174 142.800 C 253.095 142.800,253.200 142.645,253.200 141.280 C 253.200 138.907,251.658 137.989,250.262 139.531 M200.978 140.036 C 200.450 140.890,201.310 142.696,202.140 142.480 C 203.354 142.163,204.152 141.329,203.496 141.063 C 203.114 140.907,203.125 140.773,203.544 140.479 C 203.942 140.201,203.693 140.052,202.620 139.926 C 201.812 139.832,201.073 139.882,200.978 140.036 M96.832 142.162 C 95.673 143.558,97.140 145.502,99.001 145.036 C 100.587 144.637,100.412 142.622,98.740 142.039 C 97.201 141.503,97.389 141.490,96.832 142.162 M82.177 143.359 C 81.077 144.565,81.543 146.233,83.007 146.331 C 84.640 146.441,85.068 145.806,84.505 144.113 C 84.117 142.948,82.909 142.557,82.177 143.359 M28.000 326.733 C 28.000 327.137,28.135 327.602,28.300 327.767 C 28.465 327.932,28.600 328.277,28.600 328.533 C 28.600 329.100,30.986 329.166,31.035 328.600 C 31.054 328.380,31.204 327.894,31.370 327.519 C 31.838 326.461,31.293 326.000,29.576 326.000 C 28.314 326.000,28.000 326.146,28.000 326.733 M368.892 327.500 C 369.132 329.965,371.632 329.635,371.929 327.100 C 372.051 326.056,371.972 326.000,370.402 326.000 L 368.746 326.000 368.892 327.500 M94.405 326.887 C 94.421 328.346,94.904 329.212,95.449 328.759 C 95.863 328.416,96.000 328.417,96.000 328.767 C 96.000 329.095,96.163 329.080,96.556 328.716 C 96.900 328.397,96.960 328.105,96.713 327.950 C 96.456 327.789,96.472 327.603,96.757 327.426 C 97.572 326.923,97.213 326.564,95.800 326.469 C 94.877 326.407,94.402 326.550,94.405 326.887 M46.003 335.993 C 45.409 337.426,45.708 338.399,46.833 338.693 C 47.288 338.812,47.825 339.339,48.025 339.865 C 48.502 341.120,49.345 341.403,50.807 340.797 C 52.929 339.918,52.320 337.600,49.967 337.600 C 49.478 337.600,49.200 337.322,49.200 336.833 C 49.200 334.480,46.882 333.871,46.003 335.993 M76.414 335.574 C 76.186 335.999,76.000 336.617,76.000 336.947 C 76.000 337.304,75.555 337.598,74.900 337.673 C 73.263 337.862,73.265 340.393,74.902 340.968 C 75.897 341.318,76.163 341.191,77.617 339.678 C 78.504 338.755,79.403 338.000,79.615 338.000 C 80.205 338.000,80.073 336.884,79.354 335.786 C 78.573 334.594,76.999 334.481,76.414 335.574 M351.280 335.280 C 351.016 335.544,350.800 336.174,350.800 336.680 C 350.800 337.397,350.577 337.600,349.791 337.600 C 348.178 337.600,347.526 339.449,348.782 340.466 C 349.978 341.434,351.280 341.275,351.796 340.096 C 352.014 339.599,352.486 339.100,352.844 338.986 C 353.202 338.873,353.801 338.441,354.176 338.026 C 355.654 336.393,352.838 333.722,351.280 335.280 M31.527 336.680 C 30.760 336.872,30.637 338.990,31.361 339.531 C 32.447 340.341,33.587 339.963,33.940 338.675 C 34.422 336.914,33.533 336.178,31.527 336.680 M91.700 336.665 C 90.425 337.180,91.679 339.977,93.135 339.865 C 94.149 339.787,94.656 338.923,94.760 337.100 C 94.800 336.404,92.986 336.146,91.700 336.665 M366.700 336.677 C 365.464 336.998,366.234 340.131,367.497 339.918 C 368.772 339.704,370.012 336.800,368.828 336.800 C 368.629 336.800,368.226 336.731,367.933 336.648 C 367.640 336.564,367.085 336.577,366.700 336.677 M36.176 345.848 C 36.467 347.005,37.106 347.731,38.010 347.930 C 38.569 348.053,38.913 348.511,38.816 349.004 C 38.727 349.455,39.930 350.367,40.952 350.624 C 41.953 350.875,42.000 350.814,42.000 349.275 C 42.000 347.818,41.888 347.639,40.826 347.406 C 39.944 347.212,39.588 346.856,39.394 345.974 C 39.161 344.912,38.982 344.800,37.525 344.800 C 35.986 344.800,35.925 344.847,36.176 345.848 M360.800 345.751 C 360.800 346.274,360.530 346.926,360.200 347.200 C 359.870 347.474,359.600 347.580,359.600 347.435 C 359.600 347.290,359.240 347.365,358.800 347.600 C 357.552 348.268,357.642 351.003,358.900 350.618 C 359.395 350.466,360.025 350.325,360.300 350.304 C 360.575 350.284,360.814 350.162,360.831 350.033 C 361.040 348.437,361.725 347.433,362.381 347.763 C 362.780 347.964,363.798 346.598,363.925 345.691 C 364.037 344.895,363.877 344.800,362.425 344.800 C 360.981 344.800,360.800 344.906,360.800 345.751 M48.125 352.864 C 46.837 353.213,46.458 354.353,47.269 355.439 C 47.714 356.036,49.987 356.064,50.051 355.473 C 50.079 355.213,50.144 354.597,50.196 354.104 C 50.326 352.866,49.637 352.453,48.125 352.864 M350.000 354.402 C 350.000 355.972,350.056 356.051,351.100 355.929 C 353.635 355.632,353.965 353.132,351.500 352.892 L 350.000 352.746 350.000 354.402 M59.047 355.486 C 58.875 355.659,58.523 355.800,58.267 355.800 C 58.010 355.800,57.800 356.340,57.800 357.000 C 57.800 357.660,58.010 358.200,58.267 358.200 C 58.523 358.200,58.868 358.335,59.033 358.500 C 60.003 359.470,60.844 358.775,60.723 357.103 C 60.604 355.455,59.827 354.706,59.047 355.486 M339.700 355.465 C 339.416 355.580,339.200 356.364,339.200 357.283 C 339.200 359.539,341.867 359.270,342.568 356.944 C 342.776 356.254,340.795 354.797,340.240 355.232 C 340.218 355.249,339.975 355.354,339.700 355.465 " stroke="none" fill="#fce4e4" fill-rule="evenodd"></path><path id="path2" d="" stroke="none" fill="#fcf4100" fill-rule="evenodd"></path><path id="path3" d="" stroke="none" fill="#fcf4100" fill-rule="evenodd"></path><path id="path4" d="" stroke="none" fill="#fcf4100" fill-rule="evenodd"></path></g></svg>