<?xml version="1.0" standalone="no"?>
<!DOCTYPE svg PUBLIC "-//W3C//DTD SVG 20010904//EN"
 "http://www.w3.org/TR/2001/REC-SVG-20010904/DTD/svg10.dtd">
<svg version="1.0" xmlns="http://www.w3.org/2000/svg"
 width="200.000000pt" height="200.000000pt" viewBox="0 0 200.000000 200.000000"
 preserveAspectRatio="xMidYMid meet">
<metadata>
Created by potrace 1.15, written by Peter Selinger 2001-2017
</metadata>
<g transform="translate(0.000000,200.000000) scale(0.100000,-0.100000)"
fill="#000000" stroke="none">
<path d="M400 1599 c-28 -11 -77 -55 -91 -81 -5 -9 -20 -56 -33 -105 -13 -48
-70 -254 -126 -458 -83 -302 -100 -378 -95 -412 20 -135 170 -188 268 -95 42
39 44 46 108 275 31 115 59 211 62 213 2 2 28 -58 57 -133 64 -169 90 -216
138 -248 50 -34 134 -35 183 -2 44 29 67 72 130 240 29 75 55 137 58 137 4 0
33 -97 65 -215 48 -173 65 -221 89 -251 72 -87 186 -86 253 1 46 61 43 102
-21 335 -31 113 -85 312 -121 443 -35 131 -73 255 -84 276 -51 101 -190 117
-270 31 -27 -29 -51 -81 -110 -238 -41 -111 -78 -202 -81 -202 -3 0 -43 94
-88 208 -85 218 -110 257 -174 281 -35 13 -84 13 -117 0z"/>
<path d="M1700 1582 c-19 -11 -42 -35 -53 -55 -17 -34 -17 -47 -2 -364 8 -180
18 -340 21 -354 19 -95 198 -107 238 -17 11 24 19 123 30 366 18 373 17 384
-46 422 -44 26 -139 27 -188 2z"/>
<path d="M1723 655 c-42 -18 -73 -69 -73 -120 0 -52 17 -84 60 -113 98 -67
232 30 201 146 -23 82 -108 122 -188 87z"/>
</g>
</svg>
